<svg data-name="グループ 2269" xmlns="http://www.w3.org/2000/svg" width="148.781" height="38.637"><defs><clipPath id="a"><path data-name="長方形 2086" fill="#fff" d="M0 0h148.781v38.637H0z"/></clipPath></defs><path data-name="長方形 2082" fill="#fff" d="M66.657 14.362h1.324v2.383h-1.324z"/><path data-name="長方形 2083" fill="#fff" d="M66.658 20.678h1.324v17.403h-1.324z"/><path data-name="長方形 2084" fill="#fff" d="M36.695 20.478h18.132v1.324H36.695z"/><g data-name="グループ 311"><g data-name="グループ 310" clip-path="url(#a)" fill="#fff"><path data-name="パス 1" d="M18.074 1.557A21.854 21.854 0 0010.63.356H8.88v1.368h1.75c5.347 0 9.525 1.524 12.418 4.531s4.362 7.352 4.362 12.912a21.984 21.984 0 01-1.165 7.4 15.122 15.122 0 01-3.368 5.514 14.483 14.483 0 01-5.377 3.45 20.478 20.478 0 01-7.163 1.184H1.324V9.039H0V37.4a.607.607 0 00.662.683h9.675a22.076 22.076 0 007.738-1.283 15.442 15.442 0 005.788-3.738 16.564 16.564 0 003.619-5.96 23.552 23.552 0 001.254-7.939c0-6-1.673-10.724-4.972-14.052a15.4 15.4 0 00-5.69-3.558"/><path data-name="パス 2" d="M95.052 0h-.125v2.106l9.759 23.794H83.957l-4.949 12.01-.071.173h1.443l4.446-10.815h20.451L109.692 38l.032.078h1.443L95.65.421a.686.686 0 00-.6-.421"/><path data-name="パス 3" d="M133.368 35.1a9.2 9.2 0 01-11.77-.068 8.577 8.577 0 01-2.085-6.168A8.575 8.575 0 01121.6 22.7a7.862 7.862 0 015.918-2.164 8.139 8.139 0 015.256 1.58l.263.212.879-1.174-.256-.195a9.868 9.868 0 00-6.142-1.863 9.213 9.213 0 00-6.939 2.578 9.991 9.991 0 00-2.476 7.194 9.991 9.991 0 002.476 7.194 9.217 9.217 0 006.939 2.578 9.347 9.347 0 006.866-2.5l.226-.225-1.01-1.05z"/><path data-name="パス 4" d="M148.781 20.785v-1.44h-8.26v-9.16h-1.411V28.9a9.941 9.941 0 002.476 7.158 9.122 9.122 0 006.87 2.579h.325V37.2h-.325a7.783 7.783 0 01-5.883-2.145 8.6 8.6 0 01-2.052-6.151v-8.119z"/><path data-name="長方形 2085" d="M114.562 36.301h1.781v1.781h-1.781z"/></g></g></svg>