<svg xmlns="http://www.w3.org/2000/svg" width="158.631" height="610.848"><defs><clipPath id="a"><path data-name="長方形 2086" fill="#efefef" d="M0 0h610.848v158.631H0z"/></clipPath></defs><g data-name="グループ 32116"><path data-name="長方形 2082" fill="#efefef" d="M99.666 273.673v5.436h-9.784v-5.436z"/><path data-name="長方形 2083" fill="#efefef" d="M73.734 273.677v5.436H2.283v-5.436z"/><path data-name="長方形 2084" fill="#efefef" d="M74.556 150.658v74.444H69.12v-74.444z"/><g data-name="グループ 311"><g data-name="グループ 310" clip-path="url(#a)" fill="#efefef" transform="rotate(90 79.316 79.316)"><path data-name="パス 1" d="M74.206 6.392a89.726 89.726 0 00-30.563-4.931h-7.185v5.617h7.185c21.953 0 39.107 6.257 50.984 18.6s17.909 30.185 17.909 53.013a90.258 90.258 0 01-4.783 30.374 62.088 62.088 0 01-13.827 22.64A59.464 59.464 0 0171.85 145.87a84.074 84.074 0 01-29.409 4.861h-37V37.111H0v116.433a2.494 2.494 0 002.718 2.8H42.44a90.637 90.637 0 0031.77-5.239 63.4 63.4 0 0023.764-15.347 68.007 68.007 0 0014.858-24.47c3.416-9.533 5.149-20.5 5.149-32.6 0-24.622-6.869-44.029-20.413-57.693A63.232 63.232 0 0074.206 6.392"/><path data-name="パス 2" d="M390.253-.001h-.513v8.647l40.067 97.682h-85.106l-20.319 49.309-.292.71h5.924l18.254-44.4h83.965l18.127 44.083.131.32h5.925L392.708 1.727a2.817 2.817 0 00-2.455-1.728"/><path data-name="パス 3" d="M547.566 144.113c-5.67 5.707-13.754 8.6-24.026 8.6-10.453 0-18.628-2.989-24.3-8.881s-8.556-14.426-8.556-25.322 2.878-19.42 8.56-25.324 13.848-8.885 24.3-8.885c9.008 0 16.267 2.18 21.579 6.487l1.08.87 3.609-4.82-1.051-.8c-6.643-5.075-15.125-7.649-25.217-7.649-12.149 0-21.736 3.56-28.489 10.584-6.75 7.009-10.171 16.945-10.171 29.537s3.42 22.528 10.166 29.536 16.341 10.584 28.489 10.584c11.853 0 21.337-3.457 28.19-10.272l.928-.924-4.126-4.29z"/><path data-name="パス 4" d="M610.848 85.336v-5.912h-33.916V41.816h-5.79v76.842c0 12.49 3.42 22.38 10.166 29.388 6.754 7.025 16.246 10.585 28.206 10.585h1.334v-5.916h-1.334c-10.453 0-18.578-2.964-24.154-8.807-5.592-5.859-8.425-14.353-8.425-25.254V85.336z"/><path data-name="長方形 2085" d="M470.355 149.04h7.312v7.312h-7.312z"/></g></g></g></svg>