<svg id="グループ_2269" data-name="グループ 2269" xmlns="http://www.w3.org/2000/svg" xmlns:xlink="http://www.w3.org/1999/xlink" width="148.781" height="38.637" viewBox="0 0 148.781 38.637">
  <defs>
    <clipPath id="clip-path">
      <rect id="長方形_2086" data-name="長方形 2086" width="148.781" height="38.637" transform="translate(0 0)" fill="#fff"/>
    </clipPath>
  </defs>
  <rect id="長方形_2082" data-name="長方形 2082" width="1.324" height="2.383" transform="translate(66.657 14.362)" fill="#fff"/>
  <rect id="長方形_2083" data-name="長方形 2083" width="1.324" height="17.403" transform="translate(66.658 20.678)" fill="#fff"/>
  <rect id="長方形_2084" data-name="長方形 2084" width="18.132" height="1.324" transform="translate(36.695 20.478)" fill="#fff"/>
  <g id="グループ_311" data-name="グループ 311">
    <g id="グループ_310" data-name="グループ 310" clip-path="url(#clip-path)">
      <path id="パス_1" data-name="パス 1" d="M18.074,1.557A21.854,21.854,0,0,0,10.63.356H8.88V1.724h1.75c5.347,0,9.525,1.524,12.418,4.531s4.362,7.352,4.362,12.912a21.984,21.984,0,0,1-1.165,7.4,15.122,15.122,0,0,1-3.368,5.514,14.483,14.483,0,0,1-5.377,3.45,20.478,20.478,0,0,1-7.163,1.184H1.324V9.039H0V37.4a.607.607,0,0,0,.662.683h9.675A22.076,22.076,0,0,0,18.075,36.8a15.442,15.442,0,0,0,5.788-3.738,16.564,16.564,0,0,0,3.619-5.96,23.552,23.552,0,0,0,1.254-7.939c0-6-1.673-10.724-4.972-14.052a15.4,15.4,0,0,0-5.69-3.558" fill="#fff"/>
      <path id="パス_2" data-name="パス 2" d="M95.052,0h-.125V2.106L104.686,25.9H83.957l-4.949,12.01-.071.173H80.38l4.446-10.815h20.451L109.692,38l.032.078h1.443L95.65.421a.686.686,0,0,0-.6-.421" fill="#fff"/>
      <path id="パス_3" data-name="パス 3" d="M133.368,35.1a9.2,9.2,0,0,1-11.77-.068,8.577,8.577,0,0,1-2.085-6.168A8.575,8.575,0,0,1,121.6,22.7a7.862,7.862,0,0,1,5.918-2.164,8.139,8.139,0,0,1,5.256,1.58l.263.212.879-1.174-.256-.195a9.868,9.868,0,0,0-6.142-1.863,9.213,9.213,0,0,0-6.939,2.578,9.991,9.991,0,0,0-2.476,7.194,9.991,9.991,0,0,0,2.476,7.194,9.217,9.217,0,0,0,6.939,2.578,9.347,9.347,0,0,0,6.866-2.5l.226-.225L133.6,34.865Z" fill="#fff"/>
      <path id="パス_4" data-name="パス 4" d="M148.781,20.785v-1.44h-8.26v-9.16H139.11V28.9a9.941,9.941,0,0,0,2.476,7.158,9.122,9.122,0,0,0,6.87,2.579h.325V37.2h-.325a7.783,7.783,0,0,1-5.883-2.145,8.6,8.6,0,0,1-2.052-6.151V20.785Z" fill="#fff"/>
      <rect id="長方形_2085" data-name="長方形 2085" width="1.781" height="1.781" transform="translate(114.562 36.301)" fill="#fff"/>
    </g>
  </g>
</svg>
