<svg xmlns="http://www.w3.org/2000/svg" xmlns:xlink="http://www.w3.org/1999/xlink" width="158.631" height="610.848" viewBox="0 0 158.631 610.848">
  <defs>
    <clipPath id="clip-path">
      <rect id="長方形_2086" data-name="長方形 2086" width="610.848" height="158.631" fill="#efefef"/>
    </clipPath>
  </defs>
  <g id="グループ_32116" data-name="グループ 32116" transform="translate(158.632) rotate(90)">
    <rect id="長方形_2082" data-name="長方形 2082" width="5.436" height="9.784" transform="translate(273.673 58.966)" fill="#efefef"/>
    <rect id="長方形_2083" data-name="長方形 2083" width="5.436" height="71.451" transform="translate(273.677 84.898)" fill="#efefef"/>
    <rect id="長方形_2084" data-name="長方形 2084" width="74.444" height="5.436" transform="translate(150.658 84.076)" fill="#efefef"/>
    <g id="グループ_311" data-name="グループ 311" transform="translate(0 0)">
      <g id="グループ_310" data-name="グループ 310" clip-path="url(#clip-path)">
        <path id="パス_1" data-name="パス 1" d="M74.206,5.287A89.726,89.726,0,0,0,43.643.356H36.458V5.973h7.185c21.953,0,39.107,6.257,50.984,18.6s17.909,30.185,17.909,53.013a90.258,90.258,0,0,1-4.783,30.374A62.088,62.088,0,0,1,93.926,130.6a59.464,59.464,0,0,1-22.076,14.165,84.074,84.074,0,0,1-29.409,4.861h-37V36.006H0V152.439a2.494,2.494,0,0,0,2.718,2.8H42.44A90.637,90.637,0,0,0,74.21,150a63.4,63.4,0,0,0,23.764-15.347,68.007,68.007,0,0,0,14.858-24.47c3.416-9.533,5.149-20.5,5.149-32.6,0-24.622-6.869-44.029-20.413-57.693A63.232,63.232,0,0,0,74.206,5.287" transform="translate(0 1.105)" fill="#efefef"/>
        <path id="パス_2" data-name="パス 2" d="M145.1,0h-.513V8.647l40.067,97.682H99.548L79.229,155.638l-.292.71h5.924l18.254-44.4h83.965l18.127,44.083.131.32h5.925L147.555,1.728A2.817,2.817,0,0,0,145.1,0" transform="translate(245.153 -0.001)" fill="#efefef"/>
        <path id="パス_3" data-name="パス 3" d="M180.782,84.817c-5.67,5.707-13.754,8.6-24.026,8.6-10.453,0-18.628-2.989-24.3-8.881S123.9,70.11,123.9,59.214s2.878-19.42,8.56-25.324,13.848-8.885,24.3-8.885c9.008,0,16.267,2.18,21.579,6.487l1.08.87,3.609-4.82-1.051-.8c-6.643-5.075-15.125-7.649-25.217-7.649-12.149,0-21.736,3.56-28.489,10.584C121.521,36.686,118.1,46.622,118.1,59.214s3.42,22.528,10.166,29.536,16.341,10.584,28.489,10.584c11.853,0,21.337-3.457,28.19-10.272l.928-.924-4.126-4.29Z" transform="translate(366.784 59.296)" fill="#efefef"/>
        <path id="パス_4" data-name="パス 4" d="M178.816,53.705V47.793H144.9V10.185H139.11V87.027c0,12.49,3.42,22.38,10.166,29.388C156.03,123.44,165.522,127,177.482,127h1.334v-5.916h-1.334c-10.453,0-18.578-2.964-24.154-8.807-5.592-5.859-8.425-14.353-8.425-25.254V53.705Z" transform="translate(432.032 31.631)" fill="#efefef"/>
        <rect id="長方形_2085" data-name="長方形 2085" width="7.312" height="7.312" transform="translate(470.355 149.04)" fill="#efefef"/>
      </g>
    </g>
  </g>
</svg>
