<svg xmlns="http://www.w3.org/2000/svg" width="233" height="1122.804"><defs><clipPath id="a"><path data-name="長方形 2086" fill="#fff" d="M0 0h500.607v130.003H0z"/></clipPath></defs><g data-name="グループ 32133"><g data-name="グループ 31642" opacity=".1" fill="#fff"><path data-name="長方形 2082" d="M133.177 846.479v4.455h-8.018v-4.455z"/><path data-name="長方形 2083" d="M111.925 846.482v4.455H53.369v-4.455z"/><path data-name="長方形 2084" d="M112.598 745.665v61.009h-4.455v-61.009z"/></g><g data-name="グループ 31643"><text transform="rotate(90 26.5 26.5)" fill="#fff" font-size="190" font-family="QuicheSans-Regular, Quiche Sans" opacity=".096"><tspan x="0" y="0">About</tspan></text><g data-name="グループ 311"><g data-name="グループ 310" clip-path="url(#a)" fill="#fff" transform="rotate(90 -223.347 398.848)" opacity=".1"><path data-name="パス 1" d="M60.814 5.241a73.533 73.533 0 00-25.047-4.044h-5.888v4.6h5.888c17.991 0 32.049 5.128 41.783 15.246s14.677 24.74 14.677 43.448a73.969 73.969 0 01-3.92 24.892 50.883 50.883 0 01-11.332 18.558 48.733 48.733 0 01-18.092 11.6 68.9 68.9 0 01-24.1 3.984H4.455V30.413H0v95.42a2.044 2.044 0 002.227 2.3h32.554a74.28 74.28 0 0026.036-4.3 51.959 51.959 0 0019.475-12.577 55.734 55.734 0 0012.177-20.053 79.246 79.246 0 004.22-26.712c0-20.178-5.629-36.083-16.729-47.281A51.82 51.82 0 0060.814 5.241"/><path data-name="パス 2" d="M319.824-.001h-.421v7.086l32.836 80.054h-69.747l-16.652 40.41-.239.582h4.855l14.96-36.39h68.812l14.855 36.127.108.262h4.855L321.836 1.416a2.309 2.309 0 00-2.012-1.417"/><path data-name="パス 3" d="M448.747 118.105c-4.646 4.677-11.27 7.044-19.69 7.044-8.567 0-15.266-2.45-19.912-7.278s-7.015-11.824-7.015-20.754 2.359-15.915 7.015-20.754 11.349-7.281 19.912-7.281c7.382 0 13.331 1.787 17.685 5.316l.885.713 2.958-3.95-.861-.656c-5.447-4.156-12.397-6.263-20.667-6.263-9.956 0-17.813 2.917-23.348 8.674s-8.332 13.886-8.332 24.206 2.8 18.462 8.331 24.206 13.392 8.674 23.348 8.674c9.714 0 17.486-2.833 23.1-8.419l.76-.757-3.382-3.516z"/><path data-name="パス 4" d="M500.607 69.935V65.09h-27.792V34.269h-4.748v62.974c0 10.236 2.8 18.341 8.331 24.085s13.314 8.678 23.116 8.678h1.094v-4.849h-1.094c-8.567 0-15.225-2.429-19.795-7.217s-6.9-11.763-6.9-20.7V69.935z"/><path data-name="長方形 2085" d="M385.47 122.143h5.993v5.993h-5.993z"/></g></g></g></g></svg>