<svg xmlns="http://www.w3.org/2000/svg" width="5220.13" height="141.559"><path data-name="パス 2508" d="M91.64 35.009q0 .42.84.42a3.083 3.083 0 001.155-.21q.525-.21.525-.63a195.963 195.963 0 01-1.89-27.72 3.323 3.323 0 00-.735-2.415 3.677 3.677 0 00-2.625-.735H.92q-.42 0-.42 1.26t.42 1.26q7.98 0 11.655 1.05a7.382 7.382 0 015.04 4.095q1.365 3.045 1.365 9.345v97.23q0 6.3-1.365 9.24a7.757 7.757 0 01-5.04 4.095Q8.9 132.449.92 132.449q-.42 0-.42 1.26t.42 1.26h84.42a1.671 1.671 0 001.89-1.89l.42-25.83q0-.63-1.05-.735t-1.26.525q-.63 11.13-6.72 17.325t-16.17 6.195H49.64q-7.35 0-10.815-1.155a7.77 7.77 0 01-4.83-3.99q-1.365-2.835-1.365-8.5V74.279h25.62q10.08 0 14.385 3.36t4.305 11.34q0 .42 1.26.42t1.26-.42l-.21-17.01q0-6.09.21-9.24l.21-10.08q0-.42-1.26-.42t-1.26.42q0 9.24-4.515 13.23t-15.015 3.99H32.63v-48.3q0-5.88 1.26-8.61a7.089 7.089 0 014.62-3.78q3.36-1.05 10.5-1.05h16.8a22.113 22.113 0 0116.8 7.14q6.72 7.14 9.03 19.74zm160.86 99.96q.63 0 .63-1.26t-.63-1.26q-8.82 0-12.81-4.83t-3.99-15.75V1.199q0-.42-1.05-.63a1.591 1.591 0 00-1.47.21l-96.6 116.97-1.89 2.1v-93.24q0-10.92 3.885-15.645t12.495-4.725q.63 0 .63-1.26t-.63-1.26q-5.25 0-7.98.21l-10.5.21-10.71-.21q-2.94-.21-8.61-.21-.42 0-.42 1.26t.42 1.26q9.03 0 12.81 4.725t3.78 15.645v98.28q-8.19 7.56-16.59 7.56-.63 0-.63 1.26t.63 1.26l7.77-.21q2.52-.21 6.93-.21 4.62 0 7.56.21t4.62.21a3.323 3.323 0 002.415-.735 25.367 25.367 0 002.415-3.255q2.52-3.78 5.04-6.93l80.85-99.33v87.15q0 10.92-3.675 15.75t-12.285 4.83q-.42 0-.42 1.26t.42 1.26l8.19-.21q6.3-.42 10.29-.42 3.78 0 10.5.42zM400.76 6.239q.42 0 .42-1.26t-.42-1.26h-27.09q-5.25 0-19.74 17.43t-34.44 47.88a54.057 54.057 0 00-11.76-1.26q-1.26 0-9.45.63v-47.67q0-6.51 1.26-9.45a7.1 7.1 0 014.935-3.99q3.675-1.05 11.655-1.05.63 0 .63-1.26t-.63-1.26q-6.51 0-10.29.21l-14.49.21-14.28-.21q-3.78-.21-10.71-.21-.42 0-.42 1.26t.42 1.26q7.98 0 11.76 1.05a7.422 7.422 0 015.145 4.095q1.365 3.045 1.365 9.345v97.23q0 6.3-1.26 9.24a7.4 7.4 0 01-4.935 4.095q-3.675 1.155-11.655 1.155-.63 0-.63 1.26t.63 1.26l10.29-.21q8.82-.42 14.28-.42 4.62 0 8.61.21t6.72.42q7.77.63 14.07.63 16.59 0 25.62-7.56t9.03-20.16a34.072 34.072 0 00-6.615-20.475 45.556 45.556 0 00-17.535-14.385q17.64-25.41 29.715-39.795t21.42-20.685q9.345-6.3 18.375-6.3zm-102.48 67.2a79.52 79.52 0 0112.39-.84q16.38 0 23.415 7.14t7.035 22.05q0 16.38-7.245 23.52t-21.1 7.14q-8.19 0-11.34-2.94t-3.155-11.97zm142.17-52.71q0-6.3 1.26-9.345a7.054 7.054 0 014.935-4.095q3.675-1.05 11.655-1.05.63 0 .63-1.26t-.63-1.26q-6.3 0-10.08.21l-14.91.21-14.49-.21q-3.78-.21-10.29-.21-.63 0-.63 1.26t.63 1.26q7.98 0 11.655 1.05a7.382 7.382 0 015.04 4.095q1.365 3.045 1.365 9.345v97.23q0 6.3-1.365 9.24a7.757 7.757 0 01-5.04 4.095q-3.675 1.155-11.655 1.155-.63 0-.63 1.26t.63 1.26l10.29-.21q8.82-.42 14.49-.42 6.3 0 15.12.42l9.87.21q.63 0 .63-1.26t-.63-1.26q-7.77 0-11.445-1.26a8.03 8.03 0 01-5.04-4.3q-1.365-3.05-1.365-9.35zm114.24 116.55a110.854 110.854 0 0022.26-1.89 72.031 72.031 0 0018.06-6.51q1.47-.84 1.68-1.47a28.609 28.609 0 00.63-3.15l2.52-24.99q0-.63-1.155-.735t-1.365.525q-9.66 35.07-43.26 35.07-17.64 0-31.08-7.77a52.582 52.582 0 01-20.79-22.155q-7.35-14.385-7.35-33.495a70.3 70.3 0 018.085-33.495 63.093 63.093 0 0121.84-24.045 54.369 54.369 0 0129.925-8.82q17.22 0 27.93 8.4T599 38.369q0 .42 1.05.42 1.47 0 1.47-.63l-2.1-23.1a8.322 8.322 0 00-.63-3.15 6.171 6.171 0 00-1.68-1.47 94.554 94.554 0 00-20.475-7.35 102.876 102.876 0 00-21.945-2.1q-22.05 0-39.375 8.715a65.314 65.314 0 00-26.985 24.465q-9.66 15.75-9.66 36.12 0 19.74 9.87 34.965a65.857 65.857 0 0027.195 23.625q17.325 8.4 38.955 8.4zM764.06 6.239q.63 0 .63-1.26t-.63-1.26q-6.51 0-10.29.21l-14.49.21-15.54-.21q-3.57-.21-9.87-.21-.63 0-.63 1.26t.63 1.26q8.19 0 11.97 1.05a7.422 7.422 0 015.145 4.095q1.365 3.045 1.365 9.345v49.14h-80.64v-49.14q0-6.3 1.365-9.345a7.422 7.422 0 015.145-4.095q3.78-1.05 11.97-1.05.42 0 .42-1.26t-.42-1.26q-6.51 0-10.29.21l-15.12.21-14.49-.21q-3.78-.21-10.5-.21-.42 0-.42 1.26t.42 1.26a49.2 49.2 0 0111.865 1.05 7.468 7.468 0 015.25 4.095q1.365 3.045 1.365 9.345v97.23q0 6.3-1.365 9.24a7.793 7.793 0 01-5.145 4.095q-3.78 1.155-11.76 1.155-.42 0-.42 1.26t.42 1.26l10.71-.21q8.82-.42 14.07-.42 6.09 0 15.33.42l10.08.21q.42 0 .42-1.26t-.42-1.26q-7.98 0-11.865-1.26a8.086 8.086 0 01-5.25-4.3q-1.365-3.05-1.365-9.35v-43.26h80.64v43.26q0 6.3-1.365 9.345a8.055 8.055 0 01-5.145 4.3q-3.78 1.26-11.97 1.26-.63 0-.63 1.26t.63 1.26l9.87-.21q9.24-.42 15.54-.42 5.67 0 14.49.42l10.29.21q.63 0 .63-1.26t-.63-1.26q-7.98 0-11.76-1.155a7.793 7.793 0 01-5.145-4.095q-1.365-2.94-1.365-9.24v-97.23q0-6.3 1.365-9.345a7.422 7.422 0 015.145-4.095q3.78-1.045 11.76-1.045zm156.66 28.77q0 .42.84.42a3.083 3.083 0 001.155-.21q.525-.21.525-.63a195.962 195.962 0 01-1.89-27.72 3.323 3.323 0 00-.735-2.415 3.678 3.678 0 00-2.625-.735H830q-.42 0-.42 1.26t.42 1.26q7.98 0 11.655 1.05a7.382 7.382 0 015.04 4.095q1.365 3.045 1.365 9.345v97.23q0 6.3-1.365 9.24a7.756 7.756 0 01-5.04 4.095q-3.675 1.155-11.655 1.155-.42 0-.42 1.26t.42 1.26h84.42a1.671 1.671 0 001.89-1.89l.42-25.83q0-.63-1.05-.735t-1.26.525q-.63 11.13-6.72 17.325t-16.17 6.195h-12.81q-7.35 0-10.815-1.155a7.77 7.77 0 01-4.83-3.99q-1.365-2.835-1.365-8.5V74.279h25.62q10.08 0 14.385 3.36t4.3 11.34q0 .42 1.26.42t1.26-.42l-.21-17.01q0-6.09.21-9.24l.21-10.08q0-.42-1.26-.42t-1.26.42q0 9.24-4.515 13.23t-15.01 3.99h-24.99v-48.3q0-5.88 1.26-8.61a7.089 7.089 0 014.62-3.78q3.36-1.05 10.5-1.05h16.8a22.113 22.113 0 0116.8 7.14q6.72 7.14 9.03 19.74zm153.51 99.96q.63 0 .63-1.26t-.63-1.26a20.641 20.641 0 01-12.39-3.78q-5.25-3.78-8.82-12.81l-44.73-111.93q-.21-.84-2.31-.84a2.727 2.727 0 00-2.31.84l-52.29 113.61q-3.57 8.19-7.56 11.55a15.429 15.429 0 01-10.29 3.36q-.63 0-.63 1.26t.63 1.26l7.98-.21q5.88-.42 9.45-.42 8.4 0 18.06.42l8.61.21q.63 0 .63-1.26t-.63-1.26q-13.02 0-13.02-7.35a17.619 17.619 0 011.89-6.72l43.89-96.18 37.8 94.71a21.042 21.042 0 011.68 6.93 6.9 6.9 0 01-3.99 6.51q-3.99 2.1-12.39 2.1-.63 0-.63 1.26t.63 1.26l9.03-.21q7.14-.42 13.02-.42 4.41 0 9.87.42zm99.12-99.96q0 .42.84.42a3.083 3.083 0 001.155-.21q.525-.21.525-.63a195.962 195.962 0 01-1.89-27.72 3.323 3.323 0 00-.735-2.415 3.677 3.677 0 00-2.625-.735h-87.99q-.42 0-.42 1.26t.42 1.26q7.98 0 11.655 1.05a7.382 7.382 0 015.04 4.095q1.365 3.045 1.365 9.345v97.23q0 6.3-1.365 9.24a7.757 7.757 0 01-5.04 4.095q-3.675 1.155-11.655 1.155-.42 0-.42 1.26t.42 1.26h84.42a1.671 1.671 0 001.89-1.89l.42-25.83q0-.63-1.05-.735t-1.26.525q-.63 11.13-6.72 17.325t-16.17 6.195h-12.81q-7.35 0-10.815-1.155a7.77 7.77 0 01-4.83-3.99q-1.365-2.835-1.365-8.5V74.279h25.62q10.08 0 14.385 3.36t4.305 11.34q0 .42 1.26.42t1.26-.42l-.21-17.01q0-6.09.21-9.24l.21-10.08q0-.42-1.26-.42t-1.26.42q0 9.24-4.515 13.23t-15.015 3.99h-24.99v-48.3q0-5.88 1.26-8.61a7.089 7.089 0 014.62-3.78q3.36-1.05 10.5-1.05h16.8a22.113 22.113 0 0116.8 7.14q6.72 7.14 9.03 19.74zm156.45-28.77q.42 0 .42-1.26t-.42-1.26h-27.09q-5.25 0-19.74 17.43t-34.44 47.88a54.058 54.058 0 00-11.76-1.26q-1.26 0-9.45.63v-47.67q0-6.51 1.26-9.45a7.1 7.1 0 014.935-3.99q3.675-1.05 11.655-1.05.63 0 .63-1.26t-.63-1.26q-6.51 0-10.29.21l-14.49.21-14.28-.21q-3.78-.21-10.71-.21-.42 0-.42 1.26t.42 1.26q7.98 0 11.76 1.05a7.422 7.422 0 015.145 4.095q1.365 3.045 1.365 9.345v97.23q0 6.3-1.26 9.24a7.4 7.4 0 01-4.935 4.095q-3.675 1.155-11.655 1.155-.63 0-.63 1.26t.63 1.26l10.29-.21q8.82-.42 14.28-.42 4.62 0 8.61.21t6.72.42q7.77.63 14.07.63 16.59 0 25.62-7.56t9.03-20.16a34.072 34.072 0 00-6.615-20.475 45.557 45.557 0 00-17.535-14.385q17.64-25.41 29.715-39.795t21.42-20.685q9.345-6.3 18.375-6.3zm-102.48 67.2a79.52 79.52 0 0112.39-.84q16.38 0 23.415 7.14t7.035 22.05q0 16.38-7.245 23.52t-21.105 7.14q-8.19 0-11.34-2.94t-3.15-11.97zm217.14 61.53q.42 0 .42-1.26t-.42-1.26q-7.56 0-15.33-5.565a53.389 53.389 0 01-13.86-15.225l-28.14-43.26v-47.67q0-6.51 1.26-9.45a7.1 7.1 0 014.935-3.99q3.675-1.05 11.655-1.05.63 0 .63-1.26t-.63-1.26q-6.51 0-10.08.21l-14.7.21-14.49-.21q-3.78-.21-10.29-.21-.63 0-.63 1.26t.63 1.26q7.98 0 11.655 1.05a7.382 7.382 0 015.04 4.095q1.365 3.045 1.365 9.345v44.31l-34.86 51.03q-5.88 9.24-11.13 12.81a21.138 21.138 0 01-12.18 3.57q-.63 0-.63 1.26t.63 1.26q2.52 0 7.56-.42l7.35-.21q7.14 0 18.06.42l11.34.21q.42 0 .42-1.26t-.42-1.26q-10.92 0-10.92-4.41a9.4 9.4 0 012.1-5.25l33.81-49.56 25.62 39.27q4.62 7.35 4.62 12.39 0 7.56-11.34 7.56-.42 0-.42 1.26t.42 1.26l9.87-.21q7.98-.42 14.7-.42 3.57 0 8.61.42zm111.72-132.09q-6.09 0-14.07.63-2.94.21-7.455.42t-9.975.21l-14.28-.21q-3.78-.21-10.5-.21-.42 0-.42 1.26t.42 1.26q7.98 0 11.655 1.05a7.382 7.382 0 015.04 4.095q1.365 3.045 1.365 9.345v97.23q0 6.3-1.26 9.24a7.4 7.4 0 01-4.935 4.095q-3.675 1.155-11.655 1.155-.42 0-.42 1.26t.42 1.26l10.5-.21q8.82-.42 14.07-.42 7.98 0 15.75.63 9.24.42 12.81.42 21.84 0 38.745-8.4t26.145-22.89a59.257 59.257 0 009.24-32.55q0-20.37-9.555-36.015a64.812 64.812 0 00-25.935-24.15 76.31 76.31 0 00-35.7-8.505zm-2.1 3.15q16.8 0 29.82 7.035a48.845 48.845 0 0120.265 20.79q7.245 13.755 7.245 33.075a77.774 77.774 0 01-6.93 33.18 56.166 56.166 0 01-19.74 23.52q-12.81 8.61-29.61 8.61a71.117 71.117 0 01-13.965-1.05 11.528 11.528 0 01-7.245-4.2q-2.31-3.15-2.31-9.45v-94.5q0-6.3 1.785-9.87t6.72-5.355q4.935-1.785 13.965-1.785zm227.85.21q.84 0 .84-1.26t-.84-1.26q-3.99 0-12.39.42t-12.18.42q-4.62 0-11.76-.42-6.72-.42-10.29-.42-.84 0-.84 1.26t.84 1.26q7.77 0 11.34 1.47a5.134 5.134 0 013.57 5.04q0 2.94-2.73 9.03l-18.69 39.69h-49.98l-13.23-31.08q-2.94-7.14-2.94-11.55 0-6.51 5.145-9.555t15.435-3.045q1.05 0 1.05-1.26t-1.05-1.26q-3.78 0-10.92.42-7.98.42-13.86.42-5.46 0-12.6-.42-6.3-.42-10.5-.42-1.05 0-1.05 1.26t1.05 1.26a20.8 20.8 0 019.975 2.205q4.095 2.2 7.77 7.77a101.943 101.943 0 018.085 16.065l44.31 104.58a1.635 1.635 0 001.47.63q1.05 0 1.26-.63l49.56-104.37q7.14-15.54 12.18-20.895a15.894 15.894 0 0111.97-5.355zm-101.43 59.43h46.41l-24.57 51.87zm217.98 69.3q.42 0 .42-1.26t-.42-1.26q-7.56 0-15.33-5.565a53.389 53.389 0 01-13.86-15.225l-28.14-43.26v-47.67q0-6.51 1.26-9.45a7.1 7.1 0 014.935-3.99q3.675-1.05 11.655-1.05.63 0 .63-1.26t-.63-1.26q-6.51 0-10.08.21l-14.7.21-14.49-.21q-3.78-.21-10.29-.21-.63 0-.63 1.26t.63 1.26q7.98 0 11.655 1.05a7.382 7.382 0 015.04 4.095q1.365 3.045 1.365 9.345v44.31l-34.86 51.03q-5.88 9.24-11.13 12.81a21.138 21.138 0 01-12.18 3.57q-.63 0-.63 1.26t.63 1.26q2.52 0 7.56-.42l7.35-.21q7.14 0 18.06.42l11.34.21q.42 0 .42-1.26t-.42-1.26q-10.92 0-10.92-4.41a9.4 9.4 0 012.1-5.25l33.81-49.56 25.62 39.27q4.62 7.35 4.62 12.39 0 7.56-11.34 7.56-.42 0-.42 1.26t.42 1.26l9.87-.21q7.98-.42 14.7-.42 3.57 0 8.61.42zm244.23 0q.63 0 .63-1.26t-.63-1.26a20.3 20.3 0 01-12.18-3.78q-5.25-3.78-9.03-12.81l-44.73-111.93q-.21-.84-2.31-.84a2.727 2.727 0 00-2.31.84l-27.3 59.43-23.73-59.43q-.21-.84-2.31-.84a2.726 2.726 0 00-2.31.84l-52.29 113.61q-3.78 8.4-7.56 11.655t-10.29 3.255q-.63 0-.63 1.26t.63 1.26l7.98-.21q5.88-.42 9.45-.42 7.56 0 16.38.42l8.61.21q.63 0 .63-1.26t-.63-1.26q-6.3 0-9.345-1.47a5.156 5.156 0 01-3.045-5.04 18.238 18.238 0 012.1-7.56l44.73-95.97 18.9 46.83-22.26 48.3q-3.57 7.98-7.35 11.445a14.035 14.035 0 01-9.87 3.465q-.63 0-.63 1.26t.63 1.26l7.77-.21q5.88-.42 9.03-.42 6.09 0 12.39.42l5.88.21q.63 0 .63-1.26t-.63-1.26a16.839 16.839 0 01-5.565-.63 2.452 2.452 0 01-1.575-2.52q0-2.73 3.78-10.92l15.33-32.76 12.39 31.29q2.31 6.3 2.31 9.45a5.247 5.247 0 01-2.1 4.62q-2.1 1.47-6.72 1.47-.63 0-.63 1.26t.63 1.26l4.83-.21q4.2-.42 8.82-.42 4.2 0 9.66.42l8.61.21q.42 0 .42-1.26t-.42-1.26a20.109 20.109 0 01-12.18-3.675q-5.04-3.675-8.61-12.915l-14.28-35.91 26.67-57.54 37.59 94.08a21.553 21.553 0 011.68 7.35 6.951 6.951 0 01-3.78 6.51q-3.78 2.1-11.97 2.1-.63 0-.63 1.26t.63 1.26l8.82-.21q6.72-.42 12.6-.42 4.41 0 9.87.42zm41.16-114.24q0-6.3 1.26-9.345a7.054 7.054 0 014.935-4.095q3.675-1.05 11.655-1.05.63 0 .63-1.26t-.63-1.26q-6.3 0-10.08.21l-14.91.21-14.49-.21q-3.78-.21-10.29-.21-.63 0-.63 1.26t.63 1.26q7.98 0 11.655 1.05a7.382 7.382 0 015.04 4.095q1.365 3.045 1.365 9.345v97.23q0 6.3-1.365 9.24a7.757 7.757 0 01-5.04 4.095q-3.675 1.155-11.655 1.155-.63 0-.63 1.26t.63 1.26l10.29-.21q8.82-.42 14.49-.42 6.3 0 15.12.42l9.87.21q.63 0 .63-1.26t-.63-1.26q-7.77 0-11.445-1.26a8.03 8.03 0 01-5.04-4.3q-1.365-3.05-1.365-9.35zm67.62 110.46q-13.23 0-19.845-6.72t-9.555-22.89q0-.42-1.155-.42t-1.155.42q.84 7.56 1.89 19.74t1.05 18.27q0 1.05 1.155 1.05t1.155-1.05q0-4.62 11.34-4.62 17.85-.63 42.21-.63 12.39 0 26.25.42l14.28.21a44.172 44.172 0 0111.235 1.05 6.434 6.434 0 014.725 4.2 1.126 1.126 0 001.26.84q1.05 0 1.05-.84-.63-6.09-1.26-18.48t-.63-20.16q0-.42-1.26-.42t-1.26.42q-.63 16.38-6.72 22.995t-20.16 6.615q-9.45 0-13.44-.84t-5.46-3.57q-1.47-2.73-1.47-9.24v-96.81q0-6.51 1.47-9.45t5.67-3.99q4.2-1.05 13.23-1.05.63 0 .63-1.26t-.63-1.26q-6.93 0-11.13.21l-16.38.21-15.75-.21q-4.2-.21-11.55-.21-.42 0-.42 1.26t.42 1.26q9.03 0 13.23 1.05a8.325 8.325 0 015.775 4.095q1.575 3.045 1.575 9.345v97.23q0 6.51-1.47 9.135t-5.46 3.36a84.366 84.366 0 01-13.44.735zm245.07-124.95q.63 0 .63-1.26t-.63-1.26q-6.51 0-10.29.21l-14.49.21-15.54-.21q-3.57-.21-9.87-.21-.63 0-.63 1.26t.63 1.26q8.19 0 11.97 1.05a7.422 7.422 0 015.145 4.095q1.365 3.045 1.365 9.345v49.14h-80.64v-49.14q0-6.3 1.365-9.345a7.422 7.422 0 015.145-4.095q3.78-1.05 11.97-1.05.42 0 .42-1.26t-.42-1.26q-6.51 0-10.29.21l-15.12.21-14.49-.21q-3.78-.21-10.5-.21-.42 0-.42 1.26t.42 1.26a49.2 49.2 0 0111.865 1.05 7.467 7.467 0 015.25 4.095q1.365 3.045 1.365 9.345v97.23q0 6.3-1.365 9.24a7.792 7.792 0 01-5.145 4.095q-3.78 1.155-11.76 1.155-.42 0-.42 1.26t.42 1.26l10.71-.21q8.82-.42 14.07-.42 6.09 0 15.33.42l10.08.21q.42 0 .42-1.26t-.42-1.26q-7.98 0-11.865-1.26a8.085 8.085 0 01-5.25-4.3q-1.365-3.05-1.365-9.35v-43.26h80.64v43.26q0 6.3-1.365 9.345a8.055 8.055 0 01-5.145 4.3q-3.78 1.26-11.97 1.26-.63 0-.63 1.26t.63 1.26l9.87-.21q9.24-.42 15.54-.42 5.67 0 14.49.42l10.29.21q.63 0 .63-1.26t-.63-1.26q-7.98 0-11.76-1.155a7.792 7.792 0 01-5.145-4.095q-1.365-2.94-1.365-9.24v-97.23q0-6.3 1.365-9.345a7.422 7.422 0 015.145-4.095q3.78-1.045 11.76-1.045zm317.52 28.77q0 .42.84.42a3.084 3.084 0 001.155-.21q.525-.21.525-.63a195.962 195.962 0 01-1.89-27.72 3.323 3.323 0 00-.735-2.415 3.677 3.677 0 00-2.625-.735h-87.99q-.42 0-.42 1.26t.42 1.26q7.98 0 11.655 1.05a7.382 7.382 0 015.04 4.095q1.365 3.045 1.365 9.345v97.23q0 6.3-1.365 9.24a7.757 7.757 0 01-5.04 4.095q-3.675 1.155-11.655 1.155-.42 0-.42 1.26t.42 1.26h84.42a1.671 1.671 0 001.89-1.89l.42-25.83q0-.63-1.05-.735t-1.26.525q-.63 11.13-6.72 17.325t-16.17 6.195h-12.81q-7.35 0-10.815-1.155a7.77 7.77 0 01-4.83-3.99q-1.365-2.835-1.365-8.5V74.279h25.62q10.08 0 14.385 3.36t4.3 11.34q0 .42 1.26.42t1.26-.42l-.21-17.01q0-6.09.21-9.24l.21-10.08q0-.42-1.26-.42t-1.26.42q0 9.24-4.515 13.23t-15.015 3.99h-24.99v-48.3q0-5.88 1.26-8.61a7.09 7.09 0 014.62-3.78q3.36-1.05 10.5-1.05h16.8a22.113 22.113 0 0116.8 7.14q6.725 7.14 9.035 19.74zm160.86 99.96q.63 0 .63-1.26t-.63-1.26q-8.82 0-12.81-4.83t-3.99-15.75V1.199q0-.42-1.05-.63a1.591 1.591 0 00-1.47.21l-96.6 116.97-1.89 2.1v-93.24q0-10.92 3.885-15.645t12.495-4.725q.63 0 .63-1.26t-.63-1.26q-5.25 0-7.98.21l-10.5.21-10.71-.21q-2.94-.21-8.61-.21-.42 0-.42 1.26t.42 1.26q9.03 0 12.81 4.725t3.78 15.645v98.28q-8.19 7.56-16.59 7.56-.63 0-.63 1.26t.63 1.26l7.77-.21q2.52-.21 6.93-.21 4.62 0 7.56.21t4.62.21a3.323 3.323 0 002.415-.735 25.38 25.38 0 002.415-3.255q2.52-3.78 5.04-6.93l80.85-99.33v87.15q0 10.92-3.675 15.75t-12.285 4.83q-.42 0-.42 1.26t.42 1.26l8.19-.21q6.3-.42 10.29-.42 3.78 0 10.5.42zM3123.2 6.239q.42 0 .42-1.26t-.42-1.26h-27.09q-5.25 0-19.74 17.43t-34.44 47.88a54.057 54.057 0 00-11.76-1.26q-1.26 0-9.45.63v-47.67q0-6.51 1.26-9.45a7.1 7.1 0 014.935-3.99q3.675-1.05 11.655-1.05.63 0 .63-1.26t-.63-1.26q-6.51 0-10.29.21l-14.49.21-14.28-.21q-3.78-.21-10.71-.21-.42 0-.42 1.26t.42 1.26q7.98 0 11.76 1.05a7.422 7.422 0 015.145 4.095q1.365 3.045 1.365 9.345v97.23q0 6.3-1.26 9.24a7.4 7.4 0 01-4.935 4.095q-3.675 1.155-11.655 1.155-.63 0-.63 1.26t.63 1.26l10.29-.21q8.82-.42 14.28-.42 4.62 0 8.61.21t6.72.42q7.77.63 14.07.63 16.59 0 25.62-7.56t9.03-20.16a34.072 34.072 0 00-6.615-20.475 45.555 45.555 0 00-17.535-14.385q17.64-25.41 29.715-39.795t21.42-20.685q9.344-6.3 18.374-6.3zm-102.48 67.2a79.522 79.522 0 0112.39-.84q16.38 0 23.415 7.14t7.035 22.05q0 16.38-7.245 23.52t-21.1 7.14q-8.19 0-11.34-2.94t-3.15-11.97zm142.17-52.71q0-6.3 1.26-9.345a7.054 7.054 0 014.935-4.095q3.675-1.05 11.655-1.05.63 0 .63-1.26t-.63-1.26q-6.3 0-10.08.21l-14.91.21-14.49-.21q-3.78-.21-10.29-.21-.63 0-.63 1.26t.63 1.26q7.98 0 11.655 1.05a7.382 7.382 0 015.04 4.095q1.365 3.045 1.365 9.345v97.23q0 6.3-1.365 9.24a7.757 7.757 0 01-5.04 4.095q-3.675 1.155-11.655 1.155-.63 0-.63 1.26t.63 1.26l10.29-.21q8.82-.42 14.49-.42 6.3 0 15.12.42l9.87.21q.63 0 .63-1.26t-.63-1.26q-7.77 0-11.445-1.26a8.03 8.03 0 01-5.04-4.3q-1.365-3.05-1.365-9.35zm114.24 116.55a110.854 110.854 0 0022.26-1.89 72.025 72.025 0 0018.06-6.51q1.47-.84 1.68-1.47a28.667 28.667 0 00.63-3.15l2.52-24.99q0-.63-1.155-.735t-1.365.525q-9.66 35.07-43.26 35.07-17.64 0-31.08-7.77a52.581 52.581 0 01-20.79-22.155q-7.35-14.385-7.35-33.495a70.3 70.3 0 018.085-33.495 63.09 63.09 0 0121.84-24.045 54.369 54.369 0 0129.925-8.82q17.22 0 27.93 8.4t16.38 25.62q0 .42 1.05.42 1.47 0 1.47-.63l-2.1-23.1a8.318 8.318 0 00-.63-3.15 6.169 6.169 0 00-1.68-1.47 94.556 94.556 0 00-20.475-7.35 102.877 102.877 0 00-21.945-2.1q-22.05 0-39.375 8.715a65.315 65.315 0 00-26.985 24.465q-9.66 15.75-9.66 36.12 0 19.74 9.87 34.965a65.857 65.857 0 0027.2 23.625q17.319 8.4 38.95 8.4zM3486.5 6.239q.63 0 .63-1.26t-.63-1.26q-6.51 0-10.29.21l-14.49.21-15.54-.21q-3.57-.21-9.87-.21-.63 0-.63 1.26t.63 1.26q8.19 0 11.97 1.05a7.422 7.422 0 015.145 4.095q1.365 3.045 1.365 9.345v49.14h-80.64v-49.14q0-6.3 1.365-9.345a7.422 7.422 0 015.145-4.095q3.78-1.05 11.97-1.05.42 0 .42-1.26t-.42-1.26q-6.51 0-10.29.21l-15.12.21-14.49-.21q-3.78-.21-10.5-.21-.42 0-.42 1.26t.42 1.26a49.2 49.2 0 0111.865 1.05 7.467 7.467 0 015.25 4.095q1.365 3.045 1.365 9.345v97.23q0 6.3-1.365 9.24a7.792 7.792 0 01-5.145 4.095q-3.78 1.155-11.76 1.155-.42 0-.42 1.26t.42 1.26l10.71-.21q8.82-.42 14.07-.42 6.09 0 15.33.42l10.08.21q.42 0 .42-1.26t-.42-1.26q-7.98 0-11.865-1.26a8.085 8.085 0 01-5.25-4.3q-1.365-3.05-1.365-9.35v-43.26h80.64v43.26q0 6.3-1.365 9.345a8.055 8.055 0 01-5.145 4.3q-3.78 1.26-11.97 1.26-.63 0-.63 1.26t.63 1.26l9.87-.21q9.24-.42 15.54-.42 5.67 0 14.49.42l10.29.21q.63 0 .63-1.26t-.63-1.26q-7.98 0-11.76-1.155a7.792 7.792 0 01-5.145-4.095q-1.365-2.94-1.365-9.24v-97.23q0-6.3 1.365-9.345a7.422 7.422 0 015.145-4.095q3.779-1.045 11.759-1.045zm156.66 28.77q0 .42.84.42a3.084 3.084 0 001.155-.21q.525-.21.525-.63a195.962 195.962 0 01-1.89-27.72 3.323 3.323 0 00-.735-2.415 3.677 3.677 0 00-2.625-.735h-87.99q-.42 0-.42 1.26t.42 1.26q7.98 0 11.655 1.05a7.382 7.382 0 015.04 4.095q1.365 3.045 1.365 9.345v97.23q0 6.3-1.365 9.24a7.757 7.757 0 01-5.04 4.095q-3.675 1.155-11.655 1.155-.42 0-.42 1.26t.42 1.26h84.42a1.671 1.671 0 001.89-1.89l.42-25.83q0-.63-1.05-.735t-1.26.525q-.63 11.13-6.72 17.325t-16.17 6.195h-12.81q-7.35 0-10.815-1.155a7.77 7.77 0 01-4.83-3.99q-1.365-2.835-1.365-8.5V74.279h25.62q10.08 0 14.385 3.36t4.3 11.34q0 .42 1.26.42t1.26-.42l-.21-17.01q0-6.09.21-9.24l.21-10.08q0-.42-1.26-.42t-1.26.42q0 9.24-4.515 13.23t-15.015 3.99h-24.99v-48.3q0-5.88 1.26-8.61a7.09 7.09 0 014.62-3.78q3.36-1.05 10.5-1.05h16.8a22.113 22.113 0 0116.8 7.14q6.724 7.14 9.035 19.74zm153.51 99.96q.63 0 .63-1.26t-.63-1.26a20.641 20.641 0 01-12.39-3.78q-5.25-3.78-8.82-12.81l-44.73-111.93q-.21-.84-2.31-.84a2.727 2.727 0 00-2.31.84l-52.291 113.61q-3.57 8.19-7.56 11.55a15.429 15.429 0 01-10.29 3.36q-.63 0-.63 1.26t.63 1.26l7.98-.21q5.88-.42 9.45-.42 8.4 0 18.06.42l8.61.21q.63 0 .63-1.26t-.63-1.26q-13.02 0-13.02-7.35a17.618 17.618 0 011.89-6.72l43.89-96.18 37.8 94.71a21.045 21.045 0 011.68 6.93 6.9 6.9 0 01-3.99 6.51q-3.99 2.1-12.39 2.1-.63 0-.63 1.26t.63 1.26l9.03-.21q7.14-.42 13.02-.42 4.41 0 9.87.42zm99.12-99.96q0 .42.84.42a3.084 3.084 0 001.155-.21q.525-.21.525-.63a195.962 195.962 0 01-1.89-27.72 3.323 3.323 0 00-.735-2.415 3.677 3.677 0 00-2.625-.735h-87.99q-.42 0-.42 1.26t.42 1.26q7.98 0 11.655 1.05a7.382 7.382 0 015.04 4.095q1.365 3.045 1.365 9.345v97.23q0 6.3-1.365 9.24a7.757 7.757 0 01-5.04 4.095q-3.675 1.155-11.655 1.155-.42 0-.42 1.26t.42 1.26h84.42a1.671 1.671 0 001.89-1.89l.42-25.83q0-.63-1.05-.735t-1.26.525q-.63 11.13-6.72 17.325t-16.17 6.195h-12.81q-7.35 0-10.815-1.155a7.77 7.77 0 01-4.83-3.99q-1.365-2.835-1.365-8.5V74.279h25.62q10.08 0 14.385 3.36t4.3 11.34q0 .42 1.26.42t1.26-.42l-.21-17.01q0-6.09.21-9.24l.21-10.08q0-.42-1.26-.42t-1.26.42q0 9.24-4.515 13.23t-15.015 3.99h-24.99v-48.3q0-5.88 1.26-8.61a7.09 7.09 0 014.62-3.78q3.36-1.05 10.5-1.05h16.8a22.113 22.113 0 0116.8 7.14q6.724 7.14 9.035 19.74zm156.45-28.77q.42 0 .42-1.26t-.42-1.26h-27.09q-5.25 0-19.74 17.43t-34.44 47.88a54.057 54.057 0 00-11.76-1.26q-1.26 0-9.45.63v-47.67q0-6.51 1.26-9.45a7.1 7.1 0 014.935-3.99q3.675-1.05 11.655-1.05.63 0 .63-1.26t-.63-1.26q-6.51 0-10.29.21l-14.49.21-14.28-.21q-3.78-.21-10.71-.21-.42 0-.42 1.26t.42 1.26q7.98 0 11.76 1.05a7.422 7.422 0 015.145 4.095q1.365 3.045 1.365 9.345v97.23q0 6.3-1.26 9.24a7.4 7.4 0 01-4.935 4.095q-3.675 1.155-11.655 1.155-.63 0-.63 1.26t.63 1.26l10.29-.21q8.82-.42 14.28-.42 4.62 0 8.61.21t6.72.42q7.77.63 14.07.63 16.59 0 25.62-7.56t9.03-20.16a34.072 34.072 0 00-6.615-20.475 45.556 45.556 0 00-17.535-14.385q17.64-25.41 29.715-39.795t21.42-20.685q9.344-6.3 18.374-6.3zm-102.48 67.2a79.522 79.522 0 0112.39-.84q16.38 0 23.415 7.14t7.035 22.05q0 16.38-7.245 23.52t-21.1 7.14q-8.19 0-11.34-2.94t-3.15-11.97zm217.14 61.53q.42 0 .42-1.26t-.42-1.26q-7.56 0-15.33-5.565a53.388 53.388 0 01-13.86-15.225l-28.14-43.26v-47.67q0-6.51 1.26-9.45a7.1 7.1 0 014.935-3.99q3.675-1.05 11.655-1.05.63 0 .63-1.26t-.63-1.26q-6.51 0-10.08.21l-14.7.21-14.49-.21q-3.78-.21-10.29-.21-.63 0-.63 1.26t.63 1.26q7.98 0 11.655 1.05a7.381 7.381 0 015.04 4.095q1.365 3.045 1.365 9.345v44.31l-34.86 51.03q-5.88 9.24-11.13 12.81a21.138 21.138 0 01-12.18 3.57q-.63 0-.63 1.26t.63 1.26q2.52 0 7.56-.42l7.35-.21q7.14 0 18.06.42l11.34.21q.42 0 .42-1.26t-.42-1.26q-10.92 0-10.92-4.41a9.4 9.4 0 012.1-5.25l33.81-49.56 25.62 39.27q4.619 7.35 4.62 12.39 0 7.56-11.34 7.56-.42 0-.42 1.26t.42 1.26l9.87-.21q7.98-.42 14.7-.42 3.571 0 8.61.42zm111.72-132.09q-6.09 0-14.07.63-2.94.21-7.455.42t-9.975.21l-14.28-.21q-3.78-.21-10.5-.21-.42 0-.42 1.26t.42 1.26q7.98 0 11.655 1.05a7.381 7.381 0 015.04 4.095q1.365 3.045 1.365 9.345v97.23q0 6.3-1.26 9.24a7.4 7.4 0 01-4.935 4.095q-3.675 1.155-11.655 1.155-.42 0-.42 1.26t.42 1.26l10.5-.21q8.82-.42 14.07-.42 7.98 0 15.75.63 9.24.42 12.81.42 21.84 0 38.745-8.4t26.145-22.89a59.26 59.26 0 009.24-32.55q0-20.37-9.555-36.015a64.814 64.814 0 00-25.935-24.15 76.31 76.31 0 00-35.701-8.505zm-2.1 3.15q16.8 0 29.82 7.035a48.845 48.845 0 0120.265 20.79q7.244 13.755 7.245 33.075a77.779 77.779 0 01-6.93 33.18 56.167 56.167 0 01-19.74 23.52q-12.81 8.61-29.61 8.61a71.112 71.112 0 01-13.965-1.05 11.528 11.528 0 01-7.245-4.2q-2.31-3.15-2.31-9.45v-94.5q0-6.3 1.785-9.87t6.72-5.355q4.935-1.785 13.964-1.785zm227.85.21q.84 0 .84-1.26t-.84-1.26q-3.99 0-12.39.42t-12.18.42q-4.62 0-11.76-.42-6.72-.42-10.29-.42-.84 0-.84 1.26t.84 1.26q7.77 0 11.34 1.47a5.134 5.134 0 013.57 5.04q0 2.94-2.73 9.03l-18.69 39.69h-49.98l-13.23-31.08q-2.941-7.14-2.94-11.55 0-6.51 5.145-9.555t15.435-3.045q1.05 0 1.05-1.26t-1.05-1.26q-3.78 0-10.92.42-7.98.42-13.86.42-5.46 0-12.6-.42-6.3-.42-10.5-.42-1.05 0-1.05 1.26t1.05 1.26a20.8 20.8 0 019.975 2.205q4.095 2.2 7.77 7.77a101.965 101.965 0 018.085 16.065l44.31 104.58a1.635 1.635 0 001.47.63q1.05 0 1.26-.63l49.56-104.37q7.14-15.54 12.18-20.895a15.894 15.894 0 0111.969-5.355zm-101.43 59.43h46.41l-24.57 51.87zm217.98 69.3q.42 0 .42-1.26t-.42-1.26q-7.56 0-15.33-5.565a53.388 53.388 0 01-13.86-15.225l-28.14-43.26v-47.67q0-6.51 1.26-9.45a7.094 7.094 0 014.935-3.99q3.675-1.05 11.655-1.05.63 0 .63-1.26t-.63-1.26q-6.51 0-10.08.21l-14.7.21-14.49-.21q-3.78-.21-10.29-.21-.63 0-.63 1.26t.63 1.26q7.98 0 11.655 1.05a7.383 7.383 0 015.04 4.095q1.365 3.045 1.365 9.345v44.31l-34.86 51.03q-5.88 9.24-11.13 12.81a21.138 21.138 0 01-12.18 3.57q-.63 0-.63 1.26t.63 1.26q2.52 0 7.56-.42l7.35-.21q7.14 0 18.06.42l11.34.21q.42 0 .42-1.26t-.42-1.26q-10.92 0-10.92-4.41a9.4 9.4 0 012.1-5.25l33.81-49.56 25.62 39.27q4.62 7.35 4.62 12.39 0 7.56-11.34 7.56-.42 0-.42 1.26t.42 1.26l9.87-.21q7.98-.42 14.7-.42 3.57 0 8.61.42zm244.23 0q.63 0 .63-1.26t-.63-1.26a20.3 20.3 0 01-12.18-3.78q-5.25-3.78-9.03-12.81l-44.73-111.93q-.21-.84-2.31-.84a2.727 2.727 0 00-2.31.84l-27.3 59.43-23.73-59.43q-.21-.84-2.31-.84a2.727 2.727 0 00-2.31.84l-52.29 113.61q-3.78 8.4-7.56 11.655t-10.29 3.255q-.63 0-.63 1.26t.63 1.26l7.98-.21q5.88-.42 9.45-.42 7.559 0 16.38.42l8.61.21q.63 0 .63-1.26t-.63-1.26q-6.3 0-9.345-1.47a5.156 5.156 0 01-3.045-5.04 18.24 18.24 0 012.1-7.56l44.73-95.97 18.9 46.83-22.26 48.3q-3.57 7.98-7.35 11.445a14.035 14.035 0 01-9.87 3.465q-.63 0-.63 1.26t.63 1.26l7.77-.21q5.881-.42 9.03-.42 6.09 0 12.39.42l5.88.21q.63 0 .63-1.26t-.63-1.26a16.836 16.836 0 01-5.565-.63 2.452 2.452 0 01-1.575-2.52q0-2.73 3.78-10.92l15.33-32.76 12.39 31.29q2.31 6.3 2.31 9.45a5.247 5.247 0 01-2.1 4.62q-2.1 1.47-6.72 1.47-.631 0-.63 1.26t.63 1.26l4.83-.21q4.2-.42 8.82-.42 4.2 0 9.66.42l8.61.21q.42 0 .42-1.26t-.42-1.26a20.109 20.109 0 01-12.18-3.675q-5.04-3.675-8.61-12.915l-14.28-35.91 26.67-57.54 37.59 94.08a21.557 21.557 0 011.68 7.35 6.951 6.951 0 01-3.78 6.51q-3.78 2.1-11.97 2.1-.63 0-.63 1.26t.63 1.26l8.82-.21q6.72-.42 12.6-.42 4.41 0 9.87.42zm41.16-114.24q0-6.3 1.26-9.345a7.055 7.055 0 014.935-4.095q3.675-1.05 11.655-1.05.63 0 .63-1.26t-.63-1.26q-6.3 0-10.08.21l-14.91.21-14.49-.21q-3.78-.21-10.29-.21-.63 0-.63 1.26t.63 1.26q7.98 0 11.655 1.05a7.381 7.381 0 015.04 4.095q1.365 3.045 1.365 9.345v97.23q0 6.3-1.365 9.24a7.755 7.755 0 01-5.04 4.095q-3.675 1.155-11.655 1.155-.63 0-.63 1.26t.63 1.26l10.29-.21q8.82-.42 14.49-.42 6.3 0 15.12.42l9.87.21q.63 0 .63-1.26t-.63-1.26q-7.77 0-11.445-1.26a8.032 8.032 0 01-5.04-4.3q-1.365-3.05-1.366-9.35zm67.62 110.46q-13.23 0-19.845-6.72t-9.555-22.89q0-.42-1.155-.42t-1.155.42q.84 7.56 1.89 19.74t1.05 18.27q0 1.05 1.155 1.05t1.155-1.05q0-4.62 11.34-4.62 17.85-.63 42.21-.63 12.39 0 26.25.42l14.28.21a44.169 44.169 0 0111.235 1.05 6.434 6.434 0 014.725 4.2 1.126 1.126 0 001.26.84q1.05 0 1.05-.84-.63-6.09-1.26-18.48t-.63-20.16q0-.42-1.26-.42t-1.26.42q-.63 16.38-6.72 22.995t-20.16 6.615q-9.45 0-13.44-.84t-5.46-3.57q-1.47-2.73-1.47-9.24v-96.81q0-6.51 1.47-9.45t5.67-3.99q4.2-1.05 13.23-1.05.63 0 .63-1.26t-.63-1.26q-6.93 0-11.13.21l-16.38.21-15.75-.21q-4.2-.21-11.55-.21-.42 0-.42 1.26t.42 1.26q9.03 0 13.23 1.05a8.323 8.323 0 015.775 4.095q1.575 3.045 1.575 9.345v97.23q0 6.51-1.47 9.135t-5.46 3.36a84.361 84.361 0 01-13.44.735zM5219 6.239q.63 0 .63-1.26t-.63-1.26q-6.51 0-10.29.21l-14.49.21-15.54-.21q-3.57-.21-9.87-.21-.631 0-.63 1.26t.63 1.26q8.19 0 11.97 1.05a7.421 7.421 0 015.145 4.095q1.365 3.045 1.365 9.345v49.14h-80.64v-49.14q0-6.3 1.365-9.345a7.422 7.422 0 015.145-4.095q3.78-1.05 11.97-1.05.42 0 .42-1.26t-.42-1.26q-6.51 0-10.29.21l-15.12.21-14.49-.21q-3.78-.21-10.5-.21-.42 0-.42 1.26t.42 1.26a49.2 49.2 0 0111.865 1.05 7.466 7.466 0 015.25 4.095q1.365 3.045 1.365 9.345v97.23q0 6.3-1.365 9.24a7.792 7.792 0 01-5.145 4.095q-3.78 1.155-11.76 1.155-.42 0-.42 1.26t.42 1.26l10.71-.21q8.82-.42 14.07-.42 6.09 0 15.33.42l10.08.21q.42 0 .42-1.26t-.42-1.26q-7.98 0-11.865-1.26a8.087 8.087 0 01-5.25-4.3q-1.365-3.05-1.365-9.35v-43.26h80.64v43.26q0 6.3-1.365 9.345a8.054 8.054 0 01-5.145 4.3q-3.78 1.26-11.97 1.26-.631 0-.63 1.26t.63 1.26l9.87-.21q9.24-.42 15.54-.42 5.67 0 14.49.42l10.29.21q.63 0 .63-1.26t-.63-1.26q-7.98 0-11.76-1.155a7.793 7.793 0 01-5.145-4.095q-1.365-2.94-1.365-9.24v-97.23q0-6.3 1.365-9.345a7.422 7.422 0 015.145-4.095q3.78-1.045 11.76-1.045z" fill="none" stroke="#adadad"/></svg>