<svg xmlns="http://www.w3.org/2000/svg" xmlns:xlink="http://www.w3.org/1999/xlink" width="233" height="1122.804" viewBox="0 0 233 1122.804">
  <defs>
    <clipPath id="clip-path">
      <rect id="長方形_2086" data-name="長方形 2086" width="500.607" height="130.003" fill="#fff"/>
    </clipPath>
  </defs>
  <g id="グループ_32133" data-name="グループ 32133" transform="translate(0 -1824)">
    <g id="グループ_31642" data-name="グループ 31642" transform="translate(181.501 2446.196) rotate(90)" opacity="0.1">
      <rect id="長方形_2082" data-name="長方形 2082" width="4.455" height="8.018" transform="translate(224.283 48.324)" fill="#fff"/>
      <rect id="長方形_2083" data-name="長方形 2083" width="4.455" height="58.556" transform="translate(224.286 69.576)" fill="#fff"/>
      <rect id="長方形_2084" data-name="長方形 2084" width="61.009" height="4.455" transform="translate(123.469 68.903)" fill="#fff"/>
    </g>
    <g id="グループ_31643" data-name="グループ 31643">
      <text id="About" transform="translate(53 1824) rotate(90)" fill="#fff" font-size="190" font-family="QuicheSans-Regular, Quiche Sans" opacity="0.096"><tspan x="0" y="0">About</tspan></text>
      <g id="グループ_311" data-name="グループ 311" transform="translate(175.501 2446.196) rotate(90)" opacity="0.1">
        <g id="グループ_310" data-name="グループ 310" clip-path="url(#clip-path)">
          <path id="パス_1" data-name="パス 1" d="M60.814,4.4A73.533,73.533,0,0,0,35.767.356H29.879v4.6h5.888c17.991,0,32.049,5.128,41.783,15.246S92.227,44.942,92.227,63.65a73.969,73.969,0,0,1-3.92,24.892A50.883,50.883,0,0,1,76.975,107.1,48.733,48.733,0,0,1,58.883,118.7a68.9,68.9,0,0,1-24.1,3.984H4.455V29.572H0v95.42a2.044,2.044,0,0,0,2.227,2.3H34.781a74.28,74.28,0,0,0,26.036-4.3,51.959,51.959,0,0,0,19.475-12.577A55.734,55.734,0,0,0,92.469,90.362,79.246,79.246,0,0,0,96.689,63.65c0-20.178-5.629-36.083-16.729-47.281A51.82,51.82,0,0,0,60.814,4.4" transform="translate(0 0.841)" fill="#fff"/>
          <path id="パス_2" data-name="パス 2" d="M133.16,0h-.421V7.086L165.575,87.14H95.828L79.176,127.55l-.239.582h4.855l14.96-36.39h68.812l14.855,36.127.108.262h4.855L135.172,1.417A2.309,2.309,0,0,0,133.16,0" transform="translate(186.664 -0.001)" fill="#fff"/>
          <path id="パス_3" data-name="パス 3" d="M169.47,72.956C164.824,77.633,158.2,80,149.78,80c-8.567,0-15.266-2.45-19.912-7.278s-7.015-11.824-7.015-20.754,2.359-15.915,7.015-20.754,11.349-7.281,19.912-7.281c7.382,0,13.331,1.787,17.685,5.316l.885.713,2.958-3.95-.861-.656C165,21.2,158.05,19.093,149.78,19.093c-9.956,0-17.813,2.917-23.348,8.674S118.1,41.653,118.1,51.973s2.8,18.462,8.331,24.206,13.392,8.674,23.348,8.674c9.714,0,17.486-2.833,23.1-8.419l.76-.757-3.382-3.516Z" transform="translate(279.277 45.149)" fill="#fff"/>
          <path id="パス_4" data-name="パス 4" d="M171.65,45.851V41.006H143.858V10.185H139.11V73.159c0,10.236,2.8,18.341,8.331,24.085s13.314,8.678,23.116,8.678h1.094v-4.849h-1.094c-8.567,0-15.225-2.429-19.795-7.217s-6.9-11.763-6.9-20.7V45.851Z" transform="translate(328.957 24.084)" fill="#fff"/>
          <rect id="長方形_2085" data-name="長方形 2085" width="5.993" height="5.993" transform="translate(385.47 122.143)" fill="#fff"/>
        </g>
      </g>
    </g>
  </g>
</svg>
