<svg xmlns="http://www.w3.org/2000/svg" width="5219.13" height="140.56" viewBox="0 0 5219.13 140.56">
  <path id="パス_2507" data-name="パス 2507" d="M99.75-31.29q0-.42.84-.42a3.083,3.083,0,0,1,1.155.21q.525.21.525.63a195.965,195.965,0,0,0-1.89,27.72,3.323,3.323,0,0,1-.735,2.415A3.677,3.677,0,0,1,97.02,0H9.03q-.42,0-.42-1.26t.42-1.26q7.98,0,11.655-1.05a7.382,7.382,0,0,0,5.04-4.095Q27.09-10.71,27.09-17.01v-97.23q0-6.3-1.365-9.24a7.757,7.757,0,0,0-5.04-4.1Q17.01-128.73,9.03-128.73q-.42,0-.42-1.26t.42-1.26H93.45a1.671,1.671,0,0,1,1.89,1.89l.42,25.83q0,.63-1.05.735t-1.26-.525q-.63-11.13-6.72-17.325T70.56-126.84H57.75q-7.35,0-10.815,1.155a7.77,7.77,0,0,0-4.83,3.99q-1.365,2.835-1.365,8.505v42.63H66.36q10.08,0,14.385-3.36T85.05-85.26q0-.42,1.26-.42t1.26.42l-.21,17.01q0,6.09.21,9.24l.21,10.08q0,.42-1.26.42t-1.26-.42q0-9.24-4.515-13.23T65.73-66.15H40.74v48.3q0,5.88,1.26,8.61a7.089,7.089,0,0,0,4.62,3.78q3.36,1.05,10.5,1.05h16.8a22.113,22.113,0,0,0,16.8-7.14Q97.44-18.69,99.75-31.29Zm160.86-99.96q.63,0,.63,1.26t-.63,1.26q-8.82,0-12.81,4.83t-3.99,15.75V2.52q0,.42-1.05.63a1.591,1.591,0,0,1-1.47-.21l-96.6-116.97-1.89-2.1v93.24q0,10.92,3.885,15.645T159.18-2.52q.63,0,.63,1.26T159.18,0q-5.25,0-7.98-.21L140.7-.42l-10.71.21q-2.94.21-8.61.21-.42,0-.42-1.26t.42-1.26q9.03,0,12.81-4.725t3.78-15.645v-98.28q-8.19-7.56-16.59-7.56-.63,0-.63-1.26t.63-1.26l7.77.21q2.52.21,6.93.21,4.62,0,7.56-.21t4.62-.21a3.323,3.323,0,0,1,2.415.735,25.366,25.366,0,0,1,2.415,3.255q2.52,3.78,5.04,6.93L238.98-21v-87.15q0-10.92-3.675-15.75t-12.285-4.83q-.42,0-.42-1.26t.42-1.26l8.19.21q6.3.42,10.29.42,3.78,0,10.5-.42ZM408.87-2.52q.42,0,.42,1.26T408.87,0H381.78q-5.25,0-19.74-17.43T327.6-65.31a54.057,54.057,0,0,1-11.76,1.26q-1.26,0-9.45-.63v47.67q0,6.51,1.26,9.45a7.1,7.1,0,0,0,4.935,3.99q3.675,1.05,11.655,1.05.63,0,.63,1.26T324.24,0q-6.51,0-10.29-.21L299.46-.42l-14.28.21Q281.4,0,274.47,0q-.42,0-.42-1.26t.42-1.26q7.98,0,11.76-1.05a7.422,7.422,0,0,0,5.145-4.095q1.365-3.045,1.365-9.345v-97.23q0-6.3-1.26-9.24a7.4,7.4,0,0,0-4.935-4.1q-3.675-1.155-11.655-1.155-.63,0-.63-1.26t.63-1.26l10.29.21q8.82.42,14.28.42,4.62,0,8.61-.21t6.72-.42q7.77-.63,14.07-.63,16.59,0,25.62,7.56t9.03,20.16A34.072,34.072,0,0,1,356.9-83.685,45.556,45.556,0,0,1,339.36-69.3Q357-43.89,369.075-29.5T390.495-8.82Q399.84-2.52,408.87-2.52ZM306.39-69.72a79.52,79.52,0,0,0,12.39.84q16.38,0,23.415-7.14t7.035-22.05q0-16.38-7.245-23.52t-21.1-7.14q-8.19,0-11.34,2.94t-3.15,11.97ZM448.56-17.01q0,6.3,1.26,9.345a7.054,7.054,0,0,0,4.935,4.095q3.675,1.05,11.655,1.05.63,0,.63,1.26T466.41,0q-6.3,0-10.08-.21L441.42-.42l-14.49.21Q423.15,0,416.64,0q-.63,0-.63-1.26t.63-1.26q7.98,0,11.655-1.05a7.382,7.382,0,0,0,5.04-4.095Q434.7-10.71,434.7-17.01v-97.23q0-6.3-1.365-9.24a7.757,7.757,0,0,0-5.04-4.1q-3.675-1.155-11.655-1.155-.63,0-.63-1.26t.63-1.26l10.29.21q8.82.42,14.49.42,6.3,0,15.12-.42l9.87-.21q.63,0,.63,1.26t-.63,1.26q-7.77,0-11.445,1.26a8.03,8.03,0,0,0-5.04,4.305q-1.365,3.045-1.365,9.345ZM562.8-133.56a110.854,110.854,0,0,1,22.26,1.89,72.03,72.03,0,0,1,18.06,6.51q1.47.84,1.68,1.47a28.609,28.609,0,0,1,.63,3.15l2.52,24.99q0,.63-1.155.735t-1.365-.525q-9.66-35.07-43.26-35.07-17.64,0-31.08,7.77a52.582,52.582,0,0,0-20.79,22.155q-7.35,14.385-7.35,33.5a70.3,70.3,0,0,0,8.085,33.495A63.093,63.093,0,0,0,532.875-9.45,54.369,54.369,0,0,0,562.8-.63q17.22,0,27.93-8.4t16.38-25.62q0-.42,1.05-.42,1.47,0,1.47.63l-2.1,23.1a8.322,8.322,0,0,1-.63,3.15,6.171,6.171,0,0,1-1.68,1.47A94.553,94.553,0,0,1,584.745.63,102.875,102.875,0,0,1,562.8,2.73q-22.05,0-39.375-8.715A65.314,65.314,0,0,1,496.44-30.45q-9.66-15.75-9.66-36.12,0-19.74,9.87-34.965a65.857,65.857,0,0,1,27.195-23.625Q541.17-133.56,562.8-133.56ZM772.17-2.52q.63,0,.63,1.26T772.17,0q-6.51,0-10.29-.21L747.39-.42l-15.54.21q-3.57.21-9.87.21-.63,0-.63-1.26t.63-1.26q8.19,0,11.97-1.05a7.422,7.422,0,0,0,5.145-4.095q1.365-3.045,1.365-9.345V-66.15H659.82v49.14q0,6.3,1.365,9.345A7.422,7.422,0,0,0,666.33-3.57q3.78,1.05,11.97,1.05.42,0,.42,1.26T678.3,0q-6.51,0-10.29-.21L652.89-.42,638.4-.21Q634.62,0,627.9,0q-.42,0-.42-1.26t.42-1.26a49.2,49.2,0,0,0,11.865-1.05,7.468,7.468,0,0,0,5.25-4.095q1.365-3.045,1.365-9.345v-97.23q0-6.3-1.365-9.24a7.793,7.793,0,0,0-5.145-4.1q-3.78-1.155-11.76-1.155-.42,0-.42-1.26t.42-1.26l10.71.21q8.82.42,14.07.42,6.09,0,15.33-.42l10.08-.21q.42,0,.42,1.26t-.42,1.26q-7.98,0-11.865,1.26a8.086,8.086,0,0,0-5.25,4.305q-1.365,3.045-1.365,9.345v43.26h80.64v-43.26q0-6.3-1.365-9.345a8.055,8.055,0,0,0-5.145-4.305q-3.78-1.26-11.97-1.26-.63,0-.63-1.26t.63-1.26l9.87.21q9.24.42,15.54.42,5.67,0,14.49-.42l10.29-.21q.63,0,.63,1.26t-.63,1.26q-7.98,0-11.76,1.155a7.793,7.793,0,0,0-5.145,4.1q-1.365,2.94-1.365,9.24v97.23q0,6.3,1.365,9.345A7.422,7.422,0,0,0,760.41-3.57Q764.19-2.52,772.17-2.52ZM928.83-31.29q0-.42.84-.42a3.083,3.083,0,0,1,1.155.21q.525.21.525.63a195.964,195.964,0,0,0-1.89,27.72,3.323,3.323,0,0,1-.735,2.415A3.678,3.678,0,0,1,926.1,0H838.11q-.42,0-.42-1.26t.42-1.26q7.98,0,11.655-1.05a7.382,7.382,0,0,0,5.04-4.095q1.365-3.045,1.365-9.345v-97.23q0-6.3-1.365-9.24a7.756,7.756,0,0,0-5.04-4.1q-3.675-1.155-11.655-1.155-.42,0-.42-1.26t.42-1.26h84.42a1.671,1.671,0,0,1,1.89,1.89l.42,25.83q0,.63-1.05.735t-1.26-.525q-.63-11.13-6.72-17.325t-16.17-6.195H886.83q-7.35,0-10.815,1.155a7.77,7.77,0,0,0-4.83,3.99q-1.365,2.835-1.365,8.505v42.63h25.62q10.08,0,14.385-3.36t4.3-11.34q0-.42,1.26-.42t1.26.42l-.21,17.01q0,6.09.21,9.24l.21,10.08q0,.42-1.26.42t-1.26-.42q0-9.24-4.515-13.23T894.81-66.15H869.82v48.3q0,5.88,1.26,8.61a7.089,7.089,0,0,0,4.62,3.78q3.36,1.05,10.5,1.05H903a22.113,22.113,0,0,0,16.8-7.14Q926.52-18.69,928.83-31.29Zm153.51-99.96q.63,0,.63,1.26t-.63,1.26a20.641,20.641,0,0,0-12.39,3.78q-5.25,3.78-8.82,12.81L1016.4-.21q-.21.84-2.31.84a2.727,2.727,0,0,1-2.31-.84L959.49-113.82q-3.57-8.19-7.56-11.55a15.429,15.429,0,0,0-10.29-3.36q-.63,0-.63-1.26t.63-1.26l7.98.21q5.88.42,9.45.42,8.4,0,18.06-.42l8.61-.21q.63,0,.63,1.26t-.63,1.26q-13.02,0-13.02,7.35a17.619,17.619,0,0,0,1.89,6.72l43.89,96.18,37.8-94.71a21.042,21.042,0,0,0,1.68-6.93,6.9,6.9,0,0,0-3.99-6.51q-3.99-2.1-12.39-2.1-.63,0-.63-1.26t.63-1.26l9.03.21q7.14.42,13.02.42,4.41,0,9.87-.42Zm99.12,99.96q0-.42.84-.42a3.083,3.083,0,0,1,1.155.21q.525.21.525.63a195.964,195.964,0,0,0-1.89,27.72,3.323,3.323,0,0,1-.735,2.415A3.677,3.677,0,0,1,1178.73,0h-87.99q-.42,0-.42-1.26t.42-1.26q7.98,0,11.655-1.05a7.382,7.382,0,0,0,5.04-4.095q1.365-3.045,1.365-9.345v-97.23q0-6.3-1.365-9.24a7.757,7.757,0,0,0-5.04-4.1q-3.675-1.155-11.655-1.155-.42,0-.42-1.26t.42-1.26h84.42a1.671,1.671,0,0,1,1.89,1.89l.42,25.83q0,.63-1.05.735t-1.26-.525q-.63-11.13-6.72-17.325t-16.17-6.195h-12.81q-7.35,0-10.815,1.155a7.77,7.77,0,0,0-4.83,3.99q-1.365,2.835-1.365,8.505v42.63h25.62q10.08,0,14.385-3.36t4.305-11.34q0-.42,1.26-.42t1.26.42l-.21,17.01q0,6.09.21,9.24l.21,10.08q0,.42-1.26.42t-1.26-.42q0-9.24-4.515-13.23t-15.015-3.99h-24.99v48.3q0,5.88,1.26,8.61a7.089,7.089,0,0,0,4.62,3.78q3.36,1.05,10.5,1.05h16.8a22.113,22.113,0,0,0,16.8-7.14Q1179.15-18.69,1181.46-31.29ZM1337.91-2.52q.42,0,.42,1.26T1337.91,0h-27.09q-5.25,0-19.74-17.43t-34.44-47.88a54.058,54.058,0,0,1-11.76,1.26q-1.26,0-9.45-.63v47.67q0,6.51,1.26,9.45a7.1,7.1,0,0,0,4.935,3.99q3.675,1.05,11.655,1.05.63,0,.63,1.26T1253.28,0q-6.51,0-10.29-.21L1228.5-.42l-14.28.21q-3.78.21-10.71.21-.42,0-.42-1.26t.42-1.26q7.98,0,11.76-1.05a7.422,7.422,0,0,0,5.145-4.095q1.365-3.045,1.365-9.345v-97.23q0-6.3-1.26-9.24a7.4,7.4,0,0,0-4.935-4.1q-3.675-1.155-11.655-1.155-.63,0-.63-1.26t.63-1.26l10.29.21q8.82.42,14.28.42,4.62,0,8.61-.21t6.72-.42q7.77-.63,14.07-.63,16.59,0,25.62,7.56t9.03,20.16a34.072,34.072,0,0,1-6.615,20.475A45.557,45.557,0,0,1,1268.4-69.3q17.64,25.41,29.715,39.8t21.42,20.685Q1328.88-2.52,1337.91-2.52Zm-102.48-67.2a79.52,79.52,0,0,0,12.39.84q16.38,0,23.415-7.14t7.035-22.05q0-16.38-7.245-23.52t-21.105-7.14q-8.19,0-11.34,2.94t-3.15,11.97Zm217.14-61.53q.42,0,.42,1.26t-.42,1.26q-7.56,0-15.33,5.565a53.389,53.389,0,0,0-13.86,15.225l-28.14,43.26v47.67q0,6.51,1.26,9.45a7.1,7.1,0,0,0,4.935,3.99q3.675,1.05,11.655,1.05.63,0,.63,1.26T1413.09,0q-6.51,0-10.08-.21l-14.7-.21-14.49.21q-3.78.21-10.29.21-.63,0-.63-1.26t.63-1.26q7.98,0,11.655-1.05a7.382,7.382,0,0,0,5.04-4.095q1.365-3.045,1.365-9.345V-61.32l-34.86-51.03q-5.88-9.24-11.13-12.81a21.138,21.138,0,0,0-12.18-3.57q-.63,0-.63-1.26t.63-1.26q2.52,0,7.56.42l7.35.21q7.14,0,18.06-.42l11.34-.21q.42,0,.42,1.26t-.42,1.26q-10.92,0-10.92,4.41a9.4,9.4,0,0,0,2.1,5.25l33.81,49.56,25.62-39.27q4.62-7.35,4.62-12.39,0-7.56-11.34-7.56-.42,0-.42-1.26t.42-1.26l9.87.21q7.98.42,14.7.42,3.57,0,8.61-.42ZM1564.29.84q-6.09,0-14.07-.63-2.94-.21-7.455-.42t-9.975-.21l-14.28.21q-3.78.21-10.5.21-.42,0-.42-1.26t.42-1.26q7.98,0,11.655-1.05a7.382,7.382,0,0,0,5.04-4.095q1.365-3.045,1.365-9.345v-97.23q0-6.3-1.26-9.24a7.4,7.4,0,0,0-4.935-4.1q-3.675-1.155-11.655-1.155-.42,0-.42-1.26t.42-1.26l10.5.21q8.82.42,14.07.42,7.98,0,15.75-.63,9.24-.42,12.81-.42,21.84,0,38.745,8.4t26.145,22.89a59.258,59.258,0,0,1,9.24,32.55q0,20.37-9.555,36.015a64.812,64.812,0,0,1-25.935,24.15A76.31,76.31,0,0,1,1564.29.84Zm-2.1-3.15q16.8,0,29.82-7.035a48.845,48.845,0,0,0,20.265-20.79q7.245-13.755,7.245-33.075a77.774,77.774,0,0,0-6.93-33.18,56.166,56.166,0,0,0-19.74-23.52q-12.81-8.61-29.61-8.61a71.117,71.117,0,0,0-13.965,1.05,11.528,11.528,0,0,0-7.245,4.2q-2.31,3.15-2.31,9.45v94.5q0,6.3,1.785,9.87t6.72,5.355Q1553.16-2.31,1562.19-2.31Zm227.85-.21q.84,0,.84,1.26T1790.04,0q-3.99,0-12.39-.42t-12.18-.42q-4.62,0-11.76.42-6.72.42-10.29.42-.84,0-.84-1.26t.84-1.26q7.77,0,11.34-1.47a5.134,5.134,0,0,0,3.57-5.04q0-2.94-2.73-9.03l-18.69-39.69h-49.98L1673.7-26.67q-2.94,7.14-2.94,11.55,0,6.51,5.145,9.555T1691.34-2.52q1.05,0,1.05,1.26T1691.34,0q-3.78,0-10.92-.42-7.98-.42-13.86-.42-5.46,0-12.6.42-6.3.42-10.5.42-1.05,0-1.05-1.26t1.05-1.26a20.8,20.8,0,0,0,9.975-2.205q4.095-2.2,7.77-7.77a101.943,101.943,0,0,0,8.085-16.065l44.31-104.58a1.635,1.635,0,0,1,1.47-.63q1.05,0,1.26.63l49.56,104.37q7.14,15.54,12.18,20.895A15.894,15.894,0,0,0,1790.04-2.52ZM1688.61-61.95h46.41l-24.57-51.87Zm217.98-69.3q.42,0,.42,1.26t-.42,1.26q-7.56,0-15.33,5.565a53.389,53.389,0,0,0-13.86,15.225l-28.14,43.26v47.67q0,6.51,1.26,9.45a7.1,7.1,0,0,0,4.935,3.99q3.675,1.05,11.655,1.05.63,0,.63,1.26T1867.11,0q-6.51,0-10.08-.21l-14.7-.21-14.49.21q-3.78.21-10.29.21-.63,0-.63-1.26t.63-1.26q7.98,0,11.655-1.05a7.382,7.382,0,0,0,5.04-4.095q1.365-3.045,1.365-9.345V-61.32l-34.86-51.03q-5.88-9.24-11.13-12.81a21.138,21.138,0,0,0-12.18-3.57q-.63,0-.63-1.26t.63-1.26q2.52,0,7.56.42l7.35.21q7.14,0,18.06-.42l11.34-.21q.42,0,.42,1.26t-.42,1.26q-10.92,0-10.92,4.41a9.4,9.4,0,0,0,2.1,5.25l33.81,49.56,25.62-39.27q4.62-7.35,4.62-12.39,0-7.56-11.34-7.56-.42,0-.42-1.26t.42-1.26l9.87.21q7.98.42,14.7.42,3.57,0,8.61-.42Zm244.23,0q.63,0,.63,1.26t-.63,1.26a20.3,20.3,0,0,0-12.18,3.78q-5.25,3.78-9.03,12.81L2084.88-.21q-.21.84-2.31.84a2.727,2.727,0,0,1-2.31-.84l-27.3-59.43L2029.23-.21q-.21.84-2.31.84a2.726,2.726,0,0,1-2.31-.84l-52.29-113.61q-3.78-8.4-7.56-11.655t-10.29-3.255q-.63,0-.63-1.26t.63-1.26l7.98.21q5.88.42,9.45.42,7.56,0,16.38-.42l8.61-.21q.63,0,.63,1.26t-.63,1.26q-6.3,0-9.345,1.47a5.156,5.156,0,0,0-3.045,5.04,18.238,18.238,0,0,0,2.1,7.56l44.73,95.97,18.9-46.83-22.26-48.3q-3.57-7.98-7.35-11.445a14.035,14.035,0,0,0-9.87-3.465q-.63,0-.63-1.26t.63-1.26l7.77.21q5.88.42,9.03.42,6.09,0,12.39-.42l5.88-.21q.63,0,.63,1.26t-.63,1.26a16.839,16.839,0,0,0-5.565.63,2.452,2.452,0,0,0-1.575,2.52q0,2.73,3.78,10.92l15.33,32.76,12.39-31.29q2.31-6.3,2.31-9.45a5.247,5.247,0,0,0-2.1-4.62q-2.1-1.47-6.72-1.47-.63,0-.63-1.26t.63-1.26l4.83.21q4.2.42,8.82.42,4.2,0,9.66-.42l8.61-.21q.42,0,.42,1.26t-.42,1.26a20.109,20.109,0,0,0-12.18,3.675q-5.04,3.675-8.61,12.915l-14.28,35.91,26.67,57.54,37.59-94.08a21.553,21.553,0,0,0,1.68-7.35,6.951,6.951,0,0,0-3.78-6.51q-3.78-2.1-11.97-2.1-.63,0-.63-1.26t.63-1.26l8.82.21q6.72.42,12.6.42,4.41,0,9.87-.42Zm41.16,114.24q0,6.3,1.26,9.345a7.054,7.054,0,0,0,4.935,4.095q3.675,1.05,11.655,1.05.63,0,.63,1.26T2209.83,0q-6.3,0-10.08-.21l-14.91-.21-14.49.21q-3.78.21-10.29.21-.63,0-.63-1.26t.63-1.26q7.98,0,11.655-1.05a7.382,7.382,0,0,0,5.04-4.095q1.365-3.045,1.365-9.345v-97.23q0-6.3-1.365-9.24a7.757,7.757,0,0,0-5.04-4.1q-3.675-1.155-11.655-1.155-.63,0-.63-1.26t.63-1.26l10.29.21q8.82.42,14.49.42,6.3,0,15.12-.42l9.87-.21q.63,0,.63,1.26t-.63,1.26q-7.77,0-11.445,1.26a8.03,8.03,0,0,0-5.04,4.305q-1.365,3.045-1.365,9.345Zm67.62-110.46q-13.23,0-19.845,6.72T2230.2-97.86q0,.42-1.155.42t-1.155-.42q.84-7.56,1.89-19.74t1.05-18.27q0-1.05,1.155-1.05t1.155,1.05q0,4.62,11.34,4.62,17.85.63,42.21.63,12.39,0,26.25-.42l14.28-.21a44.172,44.172,0,0,0,11.235-1.05,6.434,6.434,0,0,0,4.725-4.2,1.126,1.126,0,0,1,1.26-.84q1.05,0,1.05.84-.63,6.09-1.26,18.48t-.63,20.16q0,.42-1.26.42t-1.26-.42q-.63-16.38-6.72-23t-20.16-6.615q-9.45,0-13.44.84t-5.46,3.57q-1.47,2.73-1.47,9.24v96.81q0,6.51,1.47,9.45t5.67,3.99q4.2,1.05,13.23,1.05.63,0,.63,1.26T2314.2,0q-6.93,0-11.13-.21l-16.38-.21-15.75.21q-4.2.21-11.55.21-.42,0-.42-1.26t.42-1.26q9.03,0,13.23-1.05a8.325,8.325,0,0,0,5.775-4.095q1.575-3.045,1.575-9.345v-97.23q0-6.51-1.47-9.135t-5.46-3.36A84.365,84.365,0,0,0,2259.6-127.47ZM2504.67-2.52q.63,0,.63,1.26T2504.67,0q-6.51,0-10.29-.21l-14.49-.21-15.54.21q-3.57.21-9.87.21-.63,0-.63-1.26t.63-1.26q8.19,0,11.97-1.05a7.422,7.422,0,0,0,5.145-4.095q1.365-3.045,1.365-9.345V-66.15h-80.64v49.14q0,6.3,1.365,9.345a7.422,7.422,0,0,0,5.145,4.095q3.78,1.05,11.97,1.05.42,0,.42,1.26T2410.8,0q-6.51,0-10.29-.21l-15.12-.21-14.49.21q-3.78.21-10.5.21-.42,0-.42-1.26t.42-1.26a49.2,49.2,0,0,0,11.865-1.05,7.467,7.467,0,0,0,5.25-4.095q1.365-3.045,1.365-9.345v-97.23q0-6.3-1.365-9.24a7.792,7.792,0,0,0-5.145-4.1q-3.78-1.155-11.76-1.155-.42,0-.42-1.26t.42-1.26l10.71.21q8.82.42,14.07.42,6.09,0,15.33-.42l10.08-.21q.42,0,.42,1.26t-.42,1.26q-7.98,0-11.865,1.26a8.085,8.085,0,0,0-5.25,4.305q-1.365,3.045-1.365,9.345v43.26h80.64v-43.26q0-6.3-1.365-9.345a8.055,8.055,0,0,0-5.145-4.305q-3.78-1.26-11.97-1.26-.63,0-.63-1.26t.63-1.26l9.87.21q9.24.42,15.54.42,5.67,0,14.49-.42l10.29-.21q.63,0,.63,1.26t-.63,1.26q-7.98,0-11.76,1.155a7.792,7.792,0,0,0-5.145,4.1q-1.365,2.94-1.365,9.24v97.23q0,6.3,1.365,9.345a7.422,7.422,0,0,0,5.145,4.095Q2496.69-2.52,2504.67-2.52Zm317.52-28.77q0-.42.84-.42a3.084,3.084,0,0,1,1.155.21q.525.21.525.63a195.963,195.963,0,0,0-1.89,27.72,3.323,3.323,0,0,1-.735,2.415A3.677,3.677,0,0,1,2819.46,0h-87.99q-.42,0-.42-1.26t.42-1.26q7.98,0,11.655-1.05a7.382,7.382,0,0,0,5.04-4.095q1.365-3.045,1.365-9.345v-97.23q0-6.3-1.365-9.24a7.757,7.757,0,0,0-5.04-4.1q-3.675-1.155-11.655-1.155-.42,0-.42-1.26t.42-1.26h84.42a1.671,1.671,0,0,1,1.89,1.89l.42,25.83q0,.63-1.05.735t-1.26-.525q-.63-11.13-6.72-17.325T2793-126.84h-12.81q-7.35,0-10.815,1.155a7.77,7.77,0,0,0-4.83,3.99q-1.365,2.835-1.365,8.505v42.63h25.62q10.08,0,14.385-3.36t4.3-11.34q0-.42,1.26-.42t1.26.42l-.21,17.01q0,6.09.21,9.24l.21,10.08q0,.42-1.26.42t-1.26-.42q0-9.24-4.515-13.23t-15.015-3.99h-24.99v48.3q0,5.88,1.26,8.61a7.09,7.09,0,0,0,4.62,3.78q3.36,1.05,10.5,1.05h16.8a22.113,22.113,0,0,0,16.8-7.14Q2819.88-18.69,2822.19-31.29Zm160.86-99.96q.63,0,.63,1.26t-.63,1.26q-8.82,0-12.81,4.83t-3.99,15.75V2.52q0,.42-1.05.63a1.591,1.591,0,0,1-1.47-.21l-96.6-116.97-1.89-2.1v93.24q0,10.92,3.885,15.645T2881.62-2.52q.63,0,.63,1.26T2881.62,0q-5.25,0-7.98-.21l-10.5-.21-10.71.21q-2.94.21-8.61.21-.42,0-.42-1.26t.42-1.26q9.03,0,12.81-4.725t3.78-15.645v-98.28q-8.19-7.56-16.59-7.56-.63,0-.63-1.26t.63-1.26l7.77.21q2.52.21,6.93.21,4.62,0,7.56-.21t4.62-.21a3.323,3.323,0,0,1,2.415.735,25.379,25.379,0,0,1,2.415,3.255q2.52,3.78,5.04,6.93L2961.42-21v-87.15q0-10.92-3.675-15.75t-12.285-4.83q-.42,0-.42-1.26t.42-1.26l8.19.21q6.3.42,10.29.42,3.78,0,10.5-.42ZM3131.31-2.52q.42,0,.42,1.26T3131.31,0h-27.09q-5.25,0-19.74-17.43t-34.44-47.88a54.057,54.057,0,0,1-11.76,1.26q-1.26,0-9.45-.63v47.67q0,6.51,1.26,9.45a7.1,7.1,0,0,0,4.935,3.99q3.675,1.05,11.655,1.05.63,0,.63,1.26T3046.68,0q-6.51,0-10.29-.21L3021.9-.42l-14.28.21q-3.78.21-10.71.21-.42,0-.42-1.26t.42-1.26q7.98,0,11.76-1.05a7.422,7.422,0,0,0,5.145-4.095q1.365-3.045,1.365-9.345v-97.23q0-6.3-1.26-9.24a7.4,7.4,0,0,0-4.935-4.1q-3.675-1.155-11.655-1.155-.63,0-.63-1.26t.63-1.26l10.29.21q8.82.42,14.28.42,4.62,0,8.61-.21t6.72-.42q7.77-.63,14.07-.63,16.59,0,25.62,7.56t9.03,20.16a34.073,34.073,0,0,1-6.615,20.475A45.556,45.556,0,0,1,3061.8-69.3q17.64,25.41,29.715,39.8t21.42,20.685Q3122.28-2.52,3131.31-2.52Zm-102.48-67.2a79.522,79.522,0,0,0,12.39.84q16.38,0,23.415-7.14t7.035-22.05q0-16.38-7.245-23.52t-21.1-7.14q-8.19,0-11.34,2.94t-3.15,11.97ZM3171-17.01q0,6.3,1.26,9.345A7.054,7.054,0,0,0,3177.2-3.57q3.675,1.05,11.655,1.05.63,0,.63,1.26T3188.85,0q-6.3,0-10.08-.21l-14.91-.21-14.49.21q-3.78.21-10.29.21-.63,0-.63-1.26t.63-1.26q7.98,0,11.655-1.05a7.382,7.382,0,0,0,5.04-4.095q1.365-3.045,1.365-9.345v-97.23q0-6.3-1.365-9.24a7.757,7.757,0,0,0-5.04-4.1q-3.675-1.155-11.655-1.155-.63,0-.63-1.26t.63-1.26l10.29.21q8.82.42,14.49.42,6.3,0,15.12-.42l9.87-.21q.63,0,.63,1.26t-.63,1.26q-7.77,0-11.445,1.26a8.03,8.03,0,0,0-5.04,4.305Q3171-120.12,3171-113.82Zm114.24-116.55a110.854,110.854,0,0,1,22.26,1.89,72.025,72.025,0,0,1,18.06,6.51q1.47.84,1.68,1.47a28.667,28.667,0,0,1,.63,3.15l2.52,24.99q0,.63-1.155.735t-1.365-.525q-9.66-35.07-43.26-35.07-17.64,0-31.08,7.77a52.581,52.581,0,0,0-20.79,22.155q-7.35,14.385-7.35,33.5a70.3,70.3,0,0,0,8.085,33.495,63.09,63.09,0,0,0,21.84,24.045A54.369,54.369,0,0,0,3285.24-.63q17.22,0,27.93-8.4t16.38-25.62q0-.42,1.05-.42,1.47,0,1.47.63l-2.1,23.1a8.318,8.318,0,0,1-.63,3.15,6.169,6.169,0,0,1-1.68,1.47A94.556,94.556,0,0,1,3307.185.63a102.877,102.877,0,0,1-21.945,2.1q-22.05,0-39.375-8.715A65.315,65.315,0,0,1,3218.88-30.45q-9.66-15.75-9.66-36.12,0-19.74,9.87-34.965a65.857,65.857,0,0,1,27.2-23.625Q3263.61-133.56,3285.24-133.56ZM3494.61-2.52q.63,0,.63,1.26T3494.61,0q-6.51,0-10.29-.21l-14.49-.21-15.54.21q-3.57.21-9.87.21-.63,0-.63-1.26t.63-1.26q8.19,0,11.97-1.05a7.422,7.422,0,0,0,5.145-4.095q1.365-3.045,1.365-9.345V-66.15h-80.64v49.14q0,6.3,1.365,9.345a7.422,7.422,0,0,0,5.145,4.095q3.78,1.05,11.97,1.05.42,0,.42,1.26T3400.74,0q-6.51,0-10.29-.21l-15.12-.21-14.49.21q-3.78.21-10.5.21-.42,0-.42-1.26t.42-1.26a49.2,49.2,0,0,0,11.865-1.05,7.467,7.467,0,0,0,5.25-4.095q1.365-3.045,1.365-9.345v-97.23q0-6.3-1.365-9.24a7.792,7.792,0,0,0-5.145-4.1q-3.78-1.155-11.76-1.155-.42,0-.42-1.26t.42-1.26l10.71.21q8.82.42,14.07.42,6.09,0,15.33-.42l10.08-.21q.42,0,.42,1.26t-.42,1.26q-7.98,0-11.865,1.26a8.085,8.085,0,0,0-5.25,4.305q-1.365,3.045-1.365,9.345v43.26h80.64v-43.26q0-6.3-1.365-9.345a8.055,8.055,0,0,0-5.145-4.305q-3.78-1.26-11.97-1.26-.63,0-.63-1.26t.63-1.26l9.87.21q9.24.42,15.54.42,5.67,0,14.49-.42l10.29-.21q.63,0,.63,1.26t-.63,1.26q-7.98,0-11.76,1.155a7.792,7.792,0,0,0-5.145,4.1q-1.365,2.94-1.365,9.24v97.23q0,6.3,1.365,9.345a7.422,7.422,0,0,0,5.145,4.095Q3486.63-2.52,3494.61-2.52Zm156.66-28.77q0-.42.84-.42a3.084,3.084,0,0,1,1.155.21q.525.21.525.63a195.963,195.963,0,0,0-1.89,27.72,3.323,3.323,0,0,1-.735,2.415A3.677,3.677,0,0,1,3648.54,0h-87.99q-.42,0-.42-1.26t.42-1.26q7.98,0,11.655-1.05a7.382,7.382,0,0,0,5.04-4.095q1.365-3.045,1.365-9.345v-97.23q0-6.3-1.365-9.24a7.757,7.757,0,0,0-5.04-4.1q-3.675-1.155-11.655-1.155-.42,0-.42-1.26t.42-1.26h84.42a1.671,1.671,0,0,1,1.89,1.89l.42,25.83q0,.63-1.05.735t-1.26-.525q-.63-11.13-6.72-17.325t-16.17-6.195h-12.81q-7.35,0-10.815,1.155a7.77,7.77,0,0,0-4.83,3.99q-1.365,2.835-1.365,8.505v42.63h25.62q10.08,0,14.385-3.36t4.3-11.34q0-.42,1.26-.42t1.26.42l-.21,17.01q0,6.09.21,9.24l.21,10.08q0,.42-1.26.42t-1.26-.42q0-9.24-4.515-13.23t-15.015-3.99h-24.99v48.3q0,5.88,1.26,8.61a7.09,7.09,0,0,0,4.62,3.78q3.36,1.05,10.5,1.05h16.8a22.113,22.113,0,0,0,16.8-7.14Q3648.96-18.69,3651.27-31.29Zm153.51-99.96q.63,0,.63,1.26t-.63,1.26a20.641,20.641,0,0,0-12.39,3.78q-5.25,3.78-8.82,12.81L3738.84-.21q-.21.84-2.31.84a2.727,2.727,0,0,1-2.31-.84l-52.29-113.61q-3.57-8.19-7.56-11.55a15.429,15.429,0,0,0-10.29-3.36q-.63,0-.63-1.26t.63-1.26l7.98.21q5.88.42,9.45.42,8.4,0,18.06-.42l8.61-.21q.63,0,.63,1.26t-.63,1.26q-13.02,0-13.02,7.35a17.618,17.618,0,0,0,1.89,6.72l43.89,96.18,37.8-94.71a21.045,21.045,0,0,0,1.68-6.93,6.9,6.9,0,0,0-3.99-6.51q-3.99-2.1-12.39-2.1-.63,0-.63-1.26t.63-1.26l9.03.21q7.14.42,13.02.42,4.41,0,9.87-.42Zm99.12,99.96q0-.42.84-.42a3.084,3.084,0,0,1,1.155.21q.525.21.525.63a195.963,195.963,0,0,0-1.89,27.72,3.323,3.323,0,0,1-.735,2.415A3.677,3.677,0,0,1,3901.17,0h-87.99q-.42,0-.42-1.26t.42-1.26q7.98,0,11.655-1.05a7.382,7.382,0,0,0,5.04-4.095q1.365-3.045,1.365-9.345v-97.23q0-6.3-1.365-9.24a7.757,7.757,0,0,0-5.04-4.1q-3.675-1.155-11.655-1.155-.42,0-.42-1.26t.42-1.26h84.42a1.671,1.671,0,0,1,1.89,1.89l.42,25.83q0,.63-1.05.735t-1.26-.525q-.63-11.13-6.72-17.325t-16.17-6.195H3861.9q-7.35,0-10.815,1.155a7.77,7.77,0,0,0-4.83,3.99q-1.365,2.835-1.365,8.505v42.63h25.62q10.08,0,14.385-3.36t4.3-11.34q0-.42,1.26-.42t1.26.42l-.21,17.01q0,6.09.21,9.24l.21,10.08q0,.42-1.26.42t-1.26-.42q0-9.24-4.515-13.23t-15.015-3.99h-24.99v48.3q0,5.88,1.26,8.61a7.09,7.09,0,0,0,4.62,3.78q3.36,1.05,10.5,1.05h16.8a22.113,22.113,0,0,0,16.8-7.14Q3901.59-18.69,3903.9-31.29ZM4060.35-2.52q.42,0,.42,1.26T4060.35,0h-27.09q-5.25,0-19.74-17.43t-34.44-47.88a54.057,54.057,0,0,1-11.76,1.26q-1.26,0-9.45-.63v47.67q0,6.51,1.26,9.45a7.1,7.1,0,0,0,4.935,3.99q3.675,1.05,11.655,1.05.63,0,.63,1.26T3975.72,0q-6.51,0-10.29-.21l-14.49-.21-14.28.21q-3.78.21-10.71.21-.42,0-.42-1.26t.42-1.26q7.98,0,11.76-1.05a7.422,7.422,0,0,0,5.145-4.095q1.365-3.045,1.365-9.345v-97.23q0-6.3-1.26-9.24a7.4,7.4,0,0,0-4.935-4.1q-3.675-1.155-11.655-1.155-.63,0-.63-1.26t.63-1.26l10.29.21q8.82.42,14.28.42,4.62,0,8.61-.21t6.72-.42q7.77-.63,14.07-.63,16.59,0,25.62,7.56t9.03,20.16a34.073,34.073,0,0,1-6.615,20.475A45.556,45.556,0,0,1,3990.84-69.3q17.64,25.41,29.715,39.8t21.42,20.685Q4051.32-2.52,4060.35-2.52Zm-102.48-67.2a79.522,79.522,0,0,0,12.39.84q16.38,0,23.415-7.14t7.035-22.05q0-16.38-7.245-23.52t-21.1-7.14q-8.19,0-11.34,2.94t-3.15,11.97Zm217.14-61.53q.42,0,.42,1.26t-.42,1.26q-7.56,0-15.33,5.565a53.388,53.388,0,0,0-13.86,15.225l-28.14,43.26v47.67q0,6.51,1.26,9.45a7.1,7.1,0,0,0,4.935,3.99q3.675,1.05,11.655,1.05.63,0,.63,1.26T4135.53,0q-6.51,0-10.08-.21l-14.7-.21-14.49.21q-3.78.21-10.29.21-.63,0-.63-1.26t.63-1.26q7.98,0,11.655-1.05a7.381,7.381,0,0,0,5.04-4.095q1.365-3.045,1.365-9.345V-61.32l-34.86-51.03q-5.88-9.24-11.13-12.81a21.138,21.138,0,0,0-12.18-3.57q-.63,0-.63-1.26t.63-1.26q2.52,0,7.56.42l7.35.21q7.14,0,18.06-.42l11.34-.21q.42,0,.42,1.26t-.42,1.26q-10.92,0-10.92,4.41a9.4,9.4,0,0,0,2.1,5.25l33.81,49.56,25.62-39.27q4.619-7.35,4.62-12.39,0-7.56-11.34-7.56-.42,0-.42-1.26t.42-1.26l9.87.21q7.98.42,14.7.42,3.571,0,8.61-.42ZM4286.73.84q-6.09,0-14.07-.63-2.94-.21-7.455-.42t-9.975-.21l-14.28.21q-3.78.21-10.5.21-.42,0-.42-1.26t.42-1.26q7.98,0,11.655-1.05a7.381,7.381,0,0,0,5.04-4.095q1.365-3.045,1.365-9.345v-97.23q0-6.3-1.26-9.24a7.4,7.4,0,0,0-4.935-4.1q-3.675-1.155-11.655-1.155-.42,0-.42-1.26t.42-1.26l10.5.21q8.82.42,14.07.42,7.98,0,15.75-.63,9.24-.42,12.81-.42,21.84,0,38.745,8.4t26.145,22.89a59.26,59.26,0,0,1,9.24,32.55q0,20.37-9.555,36.015a64.814,64.814,0,0,1-25.935,24.15A76.309,76.309,0,0,1,4286.73.84Zm-2.1-3.15q16.8,0,29.82-7.035a48.845,48.845,0,0,0,20.265-20.79q7.244-13.755,7.245-33.075a77.78,77.78,0,0,0-6.93-33.18,56.167,56.167,0,0,0-19.74-23.52q-12.81-8.61-29.61-8.61a71.111,71.111,0,0,0-13.965,1.05,11.528,11.528,0,0,0-7.245,4.2q-2.31,3.15-2.31,9.45v94.5q0,6.3,1.785,9.87t6.72,5.355Q4275.6-2.31,4284.63-2.31Zm227.85-.21q.84,0,.84,1.26T4512.48,0q-3.99,0-12.39-.42t-12.18-.42q-4.62,0-11.76.42-6.72.42-10.29.42-.84,0-.84-1.26t.84-1.26q7.77,0,11.34-1.47a5.134,5.134,0,0,0,3.57-5.04q0-2.94-2.73-9.03l-18.69-39.69h-49.98l-13.23,31.08q-2.941,7.14-2.94,11.55,0,6.51,5.145,9.555T4413.78-2.52q1.05,0,1.05,1.26T4413.78,0q-3.78,0-10.92-.42-7.98-.42-13.86-.42-5.46,0-12.6.42-6.3.42-10.5.42-1.05,0-1.05-1.26t1.05-1.26a20.8,20.8,0,0,0,9.975-2.205q4.095-2.2,7.77-7.77a101.965,101.965,0,0,0,8.085-16.065l44.31-104.58a1.635,1.635,0,0,1,1.47-.63q1.05,0,1.26.63l49.56,104.37q7.14,15.54,12.18,20.895A15.894,15.894,0,0,0,4512.48-2.52ZM4411.05-61.95h46.41l-24.57-51.87Zm217.98-69.3q.42,0,.42,1.26t-.42,1.26q-7.56,0-15.33,5.565a53.388,53.388,0,0,0-13.86,15.225L4571.7-64.68v47.67q0,6.51,1.26,9.45a7.094,7.094,0,0,0,4.935,3.99q3.675,1.05,11.655,1.05.63,0,.63,1.26T4589.55,0q-6.51,0-10.08-.21l-14.7-.21-14.49.21q-3.78.21-10.29.21-.63,0-.63-1.26t.63-1.26q7.98,0,11.655-1.05a7.383,7.383,0,0,0,5.04-4.095q1.365-3.045,1.365-9.345V-61.32l-34.86-51.03q-5.88-9.24-11.13-12.81a21.138,21.138,0,0,0-12.18-3.57q-.63,0-.63-1.26t.63-1.26q2.52,0,7.56.42l7.35.21q7.14,0,18.06-.42l11.34-.21q.42,0,.42,1.26t-.42,1.26q-10.92,0-10.92,4.41a9.4,9.4,0,0,0,2.1,5.25l33.81,49.56,25.62-39.27q4.62-7.35,4.62-12.39,0-7.56-11.34-7.56-.42,0-.42-1.26t.42-1.26l9.87.21q7.98.42,14.7.42,3.57,0,8.61-.42Zm244.23,0q.63,0,.63,1.26t-.63,1.26a20.3,20.3,0,0,0-12.18,3.78q-5.25,3.78-9.03,12.81L4807.32-.21q-.21.84-2.31.84a2.727,2.727,0,0,1-2.31-.84l-27.3-59.43L4751.67-.21q-.21.84-2.31.84a2.727,2.727,0,0,1-2.31-.84l-52.29-113.61q-3.78-8.4-7.56-11.655t-10.29-3.255q-.63,0-.63-1.26t.63-1.26l7.98.21q5.88.42,9.45.42,7.559,0,16.38-.42l8.61-.21q.63,0,.63,1.26t-.63,1.26q-6.3,0-9.345,1.47a5.156,5.156,0,0,0-3.045,5.04,18.24,18.24,0,0,0,2.1,7.56l44.73,95.97,18.9-46.83-22.26-48.3q-3.57-7.98-7.35-11.445a14.035,14.035,0,0,0-9.87-3.465q-.63,0-.63-1.26t.63-1.26l7.77.21q5.881.42,9.03.42,6.09,0,12.39-.42l5.88-.21q.63,0,.63,1.26t-.63,1.26a16.836,16.836,0,0,0-5.565.63,2.452,2.452,0,0,0-1.575,2.52q0,2.73,3.78,10.92l15.33,32.76,12.39-31.29q2.31-6.3,2.31-9.45a5.247,5.247,0,0,0-2.1-4.62q-2.1-1.47-6.72-1.47-.631,0-.63-1.26t.63-1.26l4.83.21q4.2.42,8.82.42,4.2,0,9.66-.42l8.61-.21q.42,0,.42,1.26t-.42,1.26a20.109,20.109,0,0,0-12.18,3.675q-5.04,3.675-8.61,12.915l-14.28,35.91,26.67,57.54,37.59-94.08a21.557,21.557,0,0,0,1.68-7.35,6.951,6.951,0,0,0-3.78-6.51q-3.78-2.1-11.97-2.1-.63,0-.63-1.26t.63-1.26l8.82.21q6.72.42,12.6.42,4.41,0,9.87-.42Zm41.16,114.24q0,6.3,1.26,9.345a7.055,7.055,0,0,0,4.935,4.095q3.675,1.05,11.655,1.05.63,0,.63,1.26T4932.27,0q-6.3,0-10.08-.21l-14.91-.21-14.49.21q-3.78.21-10.29.21-.63,0-.63-1.26t.63-1.26q7.98,0,11.655-1.05a7.381,7.381,0,0,0,5.04-4.095q1.365-3.045,1.365-9.345v-97.23q0-6.3-1.365-9.24a7.755,7.755,0,0,0-5.04-4.1q-3.675-1.155-11.655-1.155-.63,0-.63-1.26t.63-1.26l10.29.21q8.82.42,14.49.42,6.3,0,15.12-.42l9.87-.21q.63,0,.63,1.26t-.63,1.26q-7.77,0-11.445,1.26a8.032,8.032,0,0,0-5.04,4.305q-1.365,3.045-1.365,9.345Zm67.62-110.46q-13.23,0-19.845,6.72t-9.555,22.89q0,.42-1.155.42t-1.155-.42q.84-7.56,1.89-19.74t1.05-18.27q0-1.05,1.155-1.05t1.155,1.05q0,4.62,11.34,4.62,17.85.63,42.21.63,12.39,0,26.25-.42l14.28-.21a44.169,44.169,0,0,0,11.235-1.05,6.434,6.434,0,0,0,4.725-4.2,1.126,1.126,0,0,1,1.26-.84q1.05,0,1.05.84-.63,6.09-1.26,18.48t-.63,20.16q0,.42-1.26.42t-1.26-.42q-.63-16.38-6.72-23t-20.16-6.615q-9.45,0-13.44.84t-5.46,3.57q-1.47,2.73-1.47,9.24v96.81q0,6.51,1.47,9.45t5.67,3.99q4.2,1.05,13.23,1.05.63,0,.63,1.26T5036.64,0q-6.93,0-11.13-.21l-16.38-.21-15.75.21q-4.2.21-11.55.21-.42,0-.42-1.26t.42-1.26q9.03,0,13.23-1.05a8.323,8.323,0,0,0,5.775-4.095q1.575-3.045,1.575-9.345v-97.23q0-6.51-1.47-9.135t-5.46-3.36A84.36,84.36,0,0,0,4982.04-127.47ZM5227.11-2.52q.63,0,.63,1.26T5227.11,0q-6.51,0-10.29-.21l-14.49-.21-15.54.21q-3.57.21-9.87.21-.631,0-.63-1.26t.63-1.26q8.19,0,11.97-1.05a7.421,7.421,0,0,0,5.145-4.095q1.365-3.045,1.365-9.345V-66.15h-80.64v49.14q0,6.3,1.365,9.345a7.422,7.422,0,0,0,5.145,4.095q3.78,1.05,11.97,1.05.42,0,.42,1.26T5133.24,0q-6.51,0-10.29-.21l-15.12-.21-14.49.21q-3.78.21-10.5.21-.42,0-.42-1.26t.42-1.26a49.2,49.2,0,0,0,11.865-1.05,7.466,7.466,0,0,0,5.25-4.095q1.365-3.045,1.365-9.345v-97.23q0-6.3-1.365-9.24a7.792,7.792,0,0,0-5.145-4.1q-3.78-1.155-11.76-1.155-.42,0-.42-1.26t.42-1.26l10.71.21q8.82.42,14.07.42,6.09,0,15.33-.42l10.08-.21q.42,0,.42,1.26t-.42,1.26q-7.98,0-11.865,1.26a8.087,8.087,0,0,0-5.25,4.305q-1.365,3.045-1.365,9.345v43.26h80.64v-43.26q0-6.3-1.365-9.345a8.054,8.054,0,0,0-5.145-4.305q-3.78-1.26-11.97-1.26-.631,0-.63-1.26t.63-1.26l9.87.21q9.24.42,15.54.42,5.67,0,14.49-.42l10.29-.21q.63,0,.63,1.26t-.63,1.26q-7.98,0-11.76,1.155a7.793,7.793,0,0,0-5.145,4.1q-1.365,2.94-1.365,9.24v97.23q0,6.3,1.365,9.345a7.422,7.422,0,0,0,5.145,4.095Q5219.13-2.52,5227.11-2.52Z" transform="translate(-8.61 137.34)" fill="#222"/>
</svg>
