<svg xmlns="http://www.w3.org/2000/svg" width="3059.91" height="136.989" viewBox="0 0 3059.91 136.989">
  <path id="パス_2509" data-name="パス 2509" d="M120.12-108.15q0-20.58-18.27-20.58-.63,0-.63-1.26t.63-1.26l9.03.21q7.56.42,11.97.42,3.57,0,10.29-.42l8.82-.21q.42,0,.42,1.26t-.42,1.26q-16.8,0-16.8,20.58v59.64q0,24.15-13.44,37.7T75.6,2.73q-15.54,0-27.2-6.09a43.54,43.54,0,0,1-18.06-17.325Q23.94-31.92,23.94-47.04v-67.2q0-6.3-1.26-9.24a7.4,7.4,0,0,0-4.935-4.1Q14.07-128.73,6.09-128.73q-.42,0-.42-1.26t.42-1.26l10.29.21q8.82.42,14.28.42,5.88,0,14.7-.42l10.08-.21q.63,0,.63,1.26t-.63,1.26q-7.77,0-11.55,1.26a7.69,7.69,0,0,0-5.04,4.305q-1.26,3.045-1.26,9.345v59.43q0,24.57,11.235,37.695T80.22-3.57q18.9,0,29.4-11.865T120.12-48.3Zm55.44,1.47a25.463,25.463,0,0,0,3.99,14.28,37.627,37.627,0,0,0,9.765,10.185Q195.09-78.12,205.17-72.03q11.13,6.72,17.115,11.13a40.778,40.778,0,0,1,10.29,11.235,29.872,29.872,0,0,1,4.3,16.275,34.165,34.165,0,0,1-5.04,18.27A34.437,34.437,0,0,1,217.035-2.2Q207.27,2.52,193.62,2.52a60.694,60.694,0,0,1-29.61-7.35,3.017,3.017,0,0,1-1.365-1.47,11.829,11.829,0,0,1-.525-2.52l-2.73-28.56q-.21-.84.945-1.05t1.365.63a60.235,60.235,0,0,0,12.5,26.04Q183.33-.84,198.45-.84q10.5,0,17.745-5.775T223.44-24.99a30.993,30.993,0,0,0-4.2-16.38,40.285,40.285,0,0,0-10.185-11.445,180.767,180.767,0,0,0-16.275-10.6,182.717,182.717,0,0,1-15.855-10.5,38.6,38.6,0,0,1-9.765-11.13,30.272,30.272,0,0,1-3.99-15.75,29.165,29.165,0,0,1,5.565-17.955,33.717,33.717,0,0,1,14.49-11.13,49.421,49.421,0,0,1,19.005-3.675,63.775,63.775,0,0,1,24.57,5.04q3.15,1.05,3.15,3.57l1.47,24.15q0,.84-1.05.84a1.126,1.126,0,0,1-1.26-.84,43,43,0,0,0-9.03-20.265q-7.35-9.345-21.21-9.345-11.76,0-17.535,6.825T175.56-106.68ZM395.01-2.52q.84,0,.84,1.26T395.01,0q-3.99,0-12.39-.42T370.44-.84q-4.62,0-11.76.42Q351.96,0,348.39,0q-.84,0-.84-1.26t.84-1.26q7.77,0,11.34-1.47a5.134,5.134,0,0,0,3.57-5.04q0-2.94-2.73-9.03L341.88-57.75H291.9L278.67-26.67q-2.94,7.14-2.94,11.55,0,6.51,5.145,9.555T296.31-2.52q1.05,0,1.05,1.26T296.31,0q-3.78,0-10.92-.42-7.98-.42-13.86-.42-5.46,0-12.6.42-6.3.42-10.5.42-1.05,0-1.05-1.26t1.05-1.26A20.8,20.8,0,0,0,258.4-4.725q4.1-2.2,7.77-7.77A101.944,101.944,0,0,0,274.26-28.56l44.31-104.58a1.635,1.635,0,0,1,1.47-.63q1.05,0,1.26.63L370.86-28.77Q378-13.23,383.04-7.875A15.894,15.894,0,0,0,395.01-2.52ZM293.58-61.95h46.41l-24.57-51.87ZM478.8,2.52q-23.1,0-40.215-9.24A64.81,64.81,0,0,1,412.44-31.71a68.436,68.436,0,0,1-9.03-34.65q0-20.37,10.29-35.6a66.557,66.557,0,0,1,28.245-23.415q17.955-8.19,40.215-8.19a100.761,100.761,0,0,1,21,2.1,52,52,0,0,1,16.38,6.09q1.68.84,1.89,1.47a18.489,18.489,0,0,1,.42,3.15l2.52,24.78q0,.63-1.155.84t-1.365-.63q-9.66-34.44-43.68-34.44a60.264,60.264,0,0,0-29.925,7.455,53.7,53.7,0,0,0-21,21.21Q419.58-87.78,419.58-69.51a78.482,78.482,0,0,0,7.35,33.6,61.2,61.2,0,0,0,22.05,25.515Q463.68-.63,484.47-.63q14.91,0,21-5.775t6.09-19.845q0-10.92-1.365-15.225a8.6,8.6,0,0,0-6.09-5.775q-4.725-1.47-16.485-1.47-1.26,0-1.26-1.68a2.2,2.2,0,0,1,.315-1.155.886.886,0,0,1,.735-.525q16.38,1.05,26.46,1.05,9.66,0,20.79-.63a.886.886,0,0,1,.735.525,1.883,1.883,0,0,1,.315.945q0,1.47-1.05,1.47-5.25-.21-7.245,1.365t-2.625,6.3a150.26,150.26,0,0,0-.63,16.905,84.368,84.368,0,0,0,.735,13.44,39.1,39.1,0,0,1,.735,5.04,2.432,2.432,0,0,1-.42,1.68,4.8,4.8,0,0,1-1.89.84Q497.28,2.52,478.8,2.52ZM642.81-31.29q0-.42.84-.42a3.083,3.083,0,0,1,1.155.21q.525.21.525.63a195.964,195.964,0,0,0-1.89,27.72,3.323,3.323,0,0,1-.735,2.415A3.678,3.678,0,0,1,640.08,0H552.09q-.42,0-.42-1.26t.42-1.26q7.98,0,11.655-1.05a7.382,7.382,0,0,0,5.04-4.095q1.365-3.045,1.365-9.345v-97.23q0-6.3-1.365-9.24a7.756,7.756,0,0,0-5.04-4.1q-3.675-1.155-11.655-1.155-.42,0-.42-1.26t.42-1.26h84.42a1.671,1.671,0,0,1,1.89,1.89l.42,25.83q0,.63-1.05.735t-1.26-.525q-.63-11.13-6.72-17.325t-16.17-6.195H600.81q-7.35,0-10.815,1.155a7.77,7.77,0,0,0-4.83,3.99q-1.365,2.835-1.365,8.505v42.63h25.62q10.08,0,14.385-3.36t4.3-11.34q0-.42,1.26-.42t1.26.42l-.21,17.01q0,6.09.21,9.24l.21,10.08q0,.42-1.26.42t-1.26-.42q0-9.24-4.515-13.23T608.79-66.15H583.8v48.3q0,5.88,1.26,8.61a7.089,7.089,0,0,0,4.62,3.78q3.36,1.05,10.5,1.05h16.8a22.113,22.113,0,0,0,16.8-7.14Q640.5-18.69,642.81-31.29Zm92.61-75.39a25.463,25.463,0,0,0,3.99,14.28,37.626,37.626,0,0,0,9.765,10.185Q754.95-78.12,765.03-72.03q11.13,6.72,17.115,11.13a40.779,40.779,0,0,1,10.29,11.235,29.872,29.872,0,0,1,4.3,16.275,34.164,34.164,0,0,1-5.04,18.27A34.437,34.437,0,0,1,776.895-2.2Q767.13,2.52,753.48,2.52a60.694,60.694,0,0,1-29.61-7.35A3.017,3.017,0,0,1,722.5-6.3a11.826,11.826,0,0,1-.525-2.52l-2.73-28.56q-.21-.84.945-1.05t1.365.63a60.235,60.235,0,0,0,12.495,26.04Q743.19-.84,758.31-.84q10.5,0,17.745-5.775T783.3-24.99a30.993,30.993,0,0,0-4.2-16.38,40.285,40.285,0,0,0-10.185-11.445,180.759,180.759,0,0,0-16.275-10.6,182.728,182.728,0,0,1-15.855-10.5,38.6,38.6,0,0,1-9.765-11.13,30.272,30.272,0,0,1-3.99-15.75,29.165,29.165,0,0,1,5.565-17.955,33.717,33.717,0,0,1,14.49-11.13,49.421,49.421,0,0,1,19.005-3.675,63.775,63.775,0,0,1,24.57,5.04q3.15,1.05,3.15,3.57l1.47,24.15q0,.84-1.05.84a1.126,1.126,0,0,1-1.26-.84,43,43,0,0,0-9.03-20.265q-7.35-9.345-21.21-9.345-11.76,0-17.535,6.825T735.42-106.68Zm158.97-26.88a110.854,110.854,0,0,1,22.26,1.89,72.03,72.03,0,0,1,18.06,6.51q1.47.84,1.68,1.47a28.609,28.609,0,0,1,.63,3.15l2.52,24.99q0,.63-1.155.735t-1.365-.525q-9.66-35.07-43.26-35.07-17.64,0-31.08,7.77a52.582,52.582,0,0,0-20.79,22.155q-7.35,14.385-7.35,33.5a70.3,70.3,0,0,0,8.085,33.495A63.093,63.093,0,0,0,864.465-9.45,54.369,54.369,0,0,0,894.39-.63q17.22,0,27.93-8.4T938.7-34.65q0-.42,1.05-.42,1.47,0,1.47.63l-2.1,23.1a8.32,8.32,0,0,1-.63,3.15,6.17,6.17,0,0,1-1.68,1.47A94.553,94.553,0,0,1,916.335.63a102.875,102.875,0,0,1-21.945,2.1q-22.05,0-39.375-8.715A65.314,65.314,0,0,1,828.03-30.45q-9.66-15.75-9.66-36.12,0-19.74,9.87-34.965a65.857,65.857,0,0,1,27.2-23.625Q872.76-133.56,894.39-133.56Zm157.5,102.27q0-.42.84-.42a3.083,3.083,0,0,1,1.155.21q.525.21.525.63a195.964,195.964,0,0,0-1.89,27.72,3.323,3.323,0,0,1-.735,2.415A3.677,3.677,0,0,1,1049.16,0H961.17q-.42,0-.42-1.26t.42-1.26q7.98,0,11.655-1.05a7.382,7.382,0,0,0,5.04-4.095q1.365-3.045,1.365-9.345v-97.23q0-6.3-1.365-9.24a7.756,7.756,0,0,0-5.04-4.1q-3.675-1.155-11.655-1.155-.42,0-.42-1.26t.42-1.26h84.42a1.671,1.671,0,0,1,1.89,1.89l.42,25.83q0,.63-1.05.735t-1.26-.525q-.63-11.13-6.72-17.325t-16.17-6.195h-12.81q-7.35,0-10.815,1.155a7.77,7.77,0,0,0-4.83,3.99q-1.365,2.835-1.365,8.505v42.63h25.62q10.08,0,14.385-3.36t4.305-11.34q0-.42,1.26-.42t1.26.42l-.21,17.01q0,6.09.21,9.24l.21,10.08q0,.42-1.26.42t-1.26-.42q0-9.24-4.515-13.23t-15.015-3.99H992.88v48.3q0,5.88,1.26,8.61a7.089,7.089,0,0,0,4.62,3.78q3.36,1.05,10.5,1.05h16.8a22.113,22.113,0,0,0,16.8-7.14Q1049.58-18.69,1051.89-31.29Zm160.86-99.96q.63,0,.63,1.26t-.63,1.26q-8.82,0-12.81,4.83t-3.99,15.75V2.52q0,.42-1.05.63a1.591,1.591,0,0,1-1.47-.21l-96.6-116.97-1.89-2.1v93.24q0,10.92,3.885,15.645T1111.32-2.52q.63,0,.63,1.26T1111.32,0q-5.25,0-7.98-.21l-10.5-.21-10.71.21q-2.94.21-8.61.21-.42,0-.42-1.26t.42-1.26q9.03,0,12.81-4.725t3.78-15.645v-98.28q-8.19-7.56-16.59-7.56-.63,0-.63-1.26t.63-1.26l7.77.21q2.52.21,6.93.21,4.62,0,7.56-.21t4.62-.21a3.323,3.323,0,0,1,2.415.735,25.37,25.37,0,0,1,2.415,3.255q2.52,3.78,5.04,6.93L1191.12-21v-87.15q0-10.92-3.675-15.75t-12.285-4.83q-.42,0-.42-1.26t.42-1.26l8.19.21q6.3.42,10.29.42,3.78,0,10.5-.42Zm104.58,99.96q0-.42.84-.42a3.083,3.083,0,0,1,1.155.21q.525.21.525.63a195.964,195.964,0,0,0-1.89,27.72,3.323,3.323,0,0,1-.735,2.415A3.677,3.677,0,0,1,1314.6,0h-87.99q-.42,0-.42-1.26t.42-1.26q7.98,0,11.655-1.05a7.382,7.382,0,0,0,5.04-4.095q1.365-3.045,1.365-9.345v-97.23q0-6.3-1.365-9.24a7.757,7.757,0,0,0-5.04-4.1q-3.675-1.155-11.655-1.155-.42,0-.42-1.26t.42-1.26h84.42a1.671,1.671,0,0,1,1.89,1.89l.42,25.83q0,.63-1.05.735t-1.26-.525q-.63-11.13-6.72-17.325t-16.17-6.195h-12.81q-7.35,0-10.815,1.155a7.77,7.77,0,0,0-4.83,3.99q-1.365,2.835-1.365,8.505v42.63h25.62q10.08,0,14.385-3.36t4.305-11.34q0-.42,1.26-.42t1.26.42l-.21,17.01q0,6.09.21,9.24l.21,10.08q0,.42-1.26.42t-1.26-.42q0-9.24-4.515-13.23t-15.015-3.99h-24.99v48.3q0,5.88,1.26,8.61a7.089,7.089,0,0,0,4.62,3.78q3.36,1.05,10.5,1.05h16.8a22.113,22.113,0,0,0,16.8-7.14Q1315.02-18.69,1317.33-31.29Zm43.47-75.39a25.463,25.463,0,0,0,3.99,14.28,37.627,37.627,0,0,0,9.765,10.185q5.775,4.095,15.855,10.185,11.13,6.72,17.115,11.13a40.778,40.778,0,0,1,10.29,11.235,29.872,29.872,0,0,1,4.305,16.275,34.165,34.165,0,0,1-5.04,18.27,34.436,34.436,0,0,1-14.8,12.915Q1392.51,2.52,1378.86,2.52a60.694,60.694,0,0,1-29.61-7.35,3.016,3.016,0,0,1-1.365-1.47,11.825,11.825,0,0,1-.525-2.52l-2.73-28.56q-.21-.84.945-1.05t1.365.63a60.236,60.236,0,0,0,12.495,26.04Q1368.57-.84,1383.69-.84q10.5,0,17.745-5.775t7.245-18.375a30.994,30.994,0,0,0-4.2-16.38,40.282,40.282,0,0,0-10.185-11.445,180.763,180.763,0,0,0-16.275-10.6,182.7,182.7,0,0,1-15.855-10.5,38.6,38.6,0,0,1-9.765-11.13,30.272,30.272,0,0,1-3.99-15.75,29.165,29.165,0,0,1,5.565-17.955,33.716,33.716,0,0,1,14.49-11.13,49.421,49.421,0,0,1,19.005-3.675,63.776,63.776,0,0,1,24.57,5.04q3.15,1.05,3.15,3.57l1.47,24.15q0,.84-1.05.84a1.126,1.126,0,0,1-1.26-.84,43,43,0,0,0-9.03-20.265q-7.35-9.345-21.21-9.345-11.76,0-17.535,6.825T1360.8-106.68Zm402.78-1.47q0-20.58-18.27-20.58-.63,0-.63-1.26t.63-1.26l9.03.21q7.56.42,11.97.42,3.57,0,10.29-.42l8.82-.21q.42,0,.42,1.26t-.42,1.26q-16.8,0-16.8,20.58v59.64q0,24.15-13.44,37.7T1719.06,2.73q-15.54,0-27.195-6.09a43.54,43.54,0,0,1-18.06-17.325Q1667.4-31.92,1667.4-47.04v-67.2q0-6.3-1.26-9.24a7.4,7.4,0,0,0-4.935-4.1q-3.675-1.155-11.655-1.155-.42,0-.42-1.26t.42-1.26l10.29.21q8.82.42,14.28.42,5.88,0,14.7-.42l10.08-.21q.63,0,.63,1.26t-.63,1.26q-7.77,0-11.55,1.26a7.69,7.69,0,0,0-5.04,4.305q-1.26,3.045-1.26,9.345v59.43q0,24.57,11.235,37.695t31.4,13.125q18.9,0,29.4-11.865t10.5-32.865Zm55.44,1.47a25.463,25.463,0,0,0,3.99,14.28,37.627,37.627,0,0,0,9.765,10.185q5.775,4.095,15.855,10.185,11.13,6.72,17.115,11.13a40.778,40.778,0,0,1,10.29,11.235,29.872,29.872,0,0,1,4.305,16.275,34.165,34.165,0,0,1-5.04,18.27,34.436,34.436,0,0,1-14.8,12.915Q1850.73,2.52,1837.08,2.52a60.694,60.694,0,0,1-29.61-7.35A3.016,3.016,0,0,1,1806.1-6.3a11.825,11.825,0,0,1-.525-2.52l-2.73-28.56q-.21-.84.945-1.05t1.365.63a60.236,60.236,0,0,0,12.495,26.04Q1826.79-.84,1841.91-.84q10.5,0,17.745-5.775T1866.9-24.99a30.994,30.994,0,0,0-4.2-16.38,40.282,40.282,0,0,0-10.185-11.445,180.763,180.763,0,0,0-16.275-10.6,182.7,182.7,0,0,1-15.855-10.5,38.6,38.6,0,0,1-9.765-11.13,30.272,30.272,0,0,1-3.99-15.75,29.165,29.165,0,0,1,5.565-17.955,33.716,33.716,0,0,1,14.49-11.13,49.421,49.421,0,0,1,19.005-3.675,63.776,63.776,0,0,1,24.57,5.04q3.15,1.05,3.15,3.57l1.47,24.15q0,.84-1.05.84a1.126,1.126,0,0,1-1.26-.84,43,43,0,0,0-9.03-20.265q-7.35-9.345-21.21-9.345-11.76,0-17.535,6.825T1819.02-106.68ZM2038.47-2.52q.84,0,.84,1.26T2038.47,0q-3.99,0-12.39-.42T2013.9-.84q-4.62,0-11.76.42-6.72.42-10.29.42-.84,0-.84-1.26t.84-1.26q7.77,0,11.34-1.47a5.134,5.134,0,0,0,3.57-5.04q0-2.94-2.73-9.03l-18.69-39.69h-49.98l-13.23,31.08q-2.94,7.14-2.94,11.55,0,6.51,5.145,9.555T1939.77-2.52q1.05,0,1.05,1.26T1939.77,0q-3.78,0-10.92-.42-7.98-.42-13.86-.42-5.46,0-12.6.42-6.3.42-10.5.42-1.05,0-1.05-1.26t1.05-1.26a20.8,20.8,0,0,0,9.975-2.205q4.095-2.2,7.77-7.77a101.943,101.943,0,0,0,8.085-16.065l44.31-104.58a1.635,1.635,0,0,1,1.47-.63q1.05,0,1.26.63l49.56,104.37q7.14,15.54,12.18,20.895A15.894,15.894,0,0,0,2038.47-2.52ZM1937.04-61.95h46.41l-24.57-51.87ZM2122.26,2.52q-23.1,0-40.215-9.24A64.811,64.811,0,0,1,2055.9-31.71a68.436,68.436,0,0,1-9.03-34.65q0-20.37,10.29-35.6a66.558,66.558,0,0,1,28.245-23.415q17.955-8.19,40.215-8.19a100.759,100.759,0,0,1,21,2.1,52,52,0,0,1,16.38,6.09q1.68.84,1.89,1.47a18.515,18.515,0,0,1,.42,3.15l2.52,24.78q0,.63-1.155.84t-1.365-.63q-9.66-34.44-43.68-34.44a60.265,60.265,0,0,0-29.925,7.455,53.694,53.694,0,0,0-21,21.21q-7.665,13.755-7.665,32.025a78.483,78.483,0,0,0,7.35,33.6,61.2,61.2,0,0,0,22.05,25.515q14.7,9.765,35.49,9.765,14.91,0,21-5.775t6.09-19.845q0-10.92-1.365-15.225a8.6,8.6,0,0,0-6.09-5.775q-4.725-1.47-16.485-1.47-1.26,0-1.26-1.68a2.2,2.2,0,0,1,.315-1.155.886.886,0,0,1,.735-.525q16.38,1.05,26.46,1.05,9.66,0,20.79-.63a.886.886,0,0,1,.735.525,1.883,1.883,0,0,1,.315.945q0,1.47-1.05,1.47-5.25-.21-7.245,1.365t-2.625,6.3a150.2,150.2,0,0,0-.63,16.905,84.364,84.364,0,0,0,.735,13.44,39.088,39.088,0,0,1,.735,5.04,2.432,2.432,0,0,1-.42,1.68,4.8,4.8,0,0,1-1.89.84Q2140.74,2.52,2122.26,2.52Zm164.01-33.81q0-.42.84-.42a3.084,3.084,0,0,1,1.155.21q.525.21.525.63a195.963,195.963,0,0,0-1.89,27.72,3.323,3.323,0,0,1-.735,2.415A3.677,3.677,0,0,1,2283.54,0h-87.99q-.42,0-.42-1.26t.42-1.26q7.98,0,11.655-1.05a7.382,7.382,0,0,0,5.04-4.095q1.365-3.045,1.365-9.345v-97.23q0-6.3-1.365-9.24a7.757,7.757,0,0,0-5.04-4.1q-3.675-1.155-11.655-1.155-.42,0-.42-1.26t.42-1.26h84.42a1.671,1.671,0,0,1,1.89,1.89l.42,25.83q0,.63-1.05.735t-1.26-.525q-.63-11.13-6.72-17.325t-16.17-6.195h-12.81q-7.35,0-10.815,1.155a7.77,7.77,0,0,0-4.83,3.99q-1.365,2.835-1.365,8.505v42.63h25.62q10.08,0,14.385-3.36t4.3-11.34q0-.42,1.26-.42t1.26.42l-.21,17.01q0,6.09.21,9.24l.21,10.08q0,.42-1.26.42t-1.26-.42q0-9.24-4.515-13.23t-15.015-3.99h-24.99v48.3q0,5.88,1.26,8.61a7.09,7.09,0,0,0,4.62,3.78q3.36,1.05,10.5,1.05h16.8a22.113,22.113,0,0,0,16.8-7.14Q2283.96-18.69,2286.27-31.29Zm92.61-75.39a25.464,25.464,0,0,0,3.99,14.28,37.624,37.624,0,0,0,9.765,10.185q5.775,4.095,15.855,10.185,11.13,6.72,17.115,11.13a40.78,40.78,0,0,1,10.29,11.235,29.873,29.873,0,0,1,4.3,16.275,34.164,34.164,0,0,1-5.04,18.27,34.437,34.437,0,0,1-14.8,12.915Q2410.59,2.52,2396.94,2.52a60.7,60.7,0,0,1-29.61-7.35,3.018,3.018,0,0,1-1.365-1.47,11.826,11.826,0,0,1-.525-2.52l-2.73-28.56q-.21-.84.945-1.05t1.365.63a60.234,60.234,0,0,0,12.495,26.04Q2386.65-.84,2401.77-.84q10.5,0,17.745-5.775t7.245-18.375a30.993,30.993,0,0,0-4.2-16.38,40.285,40.285,0,0,0-10.185-11.445,180.754,180.754,0,0,0-16.275-10.6,182.738,182.738,0,0,1-15.855-10.5,38.6,38.6,0,0,1-9.765-11.13,30.273,30.273,0,0,1-3.99-15.75,29.165,29.165,0,0,1,5.565-17.955,33.717,33.717,0,0,1,14.49-11.13,49.422,49.422,0,0,1,19.005-3.675,63.774,63.774,0,0,1,24.57,5.04q3.15,1.05,3.15,3.57l1.47,24.15q0,.84-1.05.84a1.126,1.126,0,0,1-1.26-.84,42.994,42.994,0,0,0-9.03-20.265q-7.35-9.345-21.21-9.345-11.76,0-17.535,6.825T2378.88-106.68Zm158.97-26.88a110.854,110.854,0,0,1,22.26,1.89,72.025,72.025,0,0,1,18.06,6.51q1.47.84,1.68,1.47a28.667,28.667,0,0,1,.63,3.15L2583-95.55q0,.63-1.155.735t-1.365-.525q-9.66-35.07-43.26-35.07-17.64,0-31.08,7.77a52.581,52.581,0,0,0-20.79,22.155Q2478-86.1,2478-66.99a70.3,70.3,0,0,0,8.085,33.495,63.09,63.09,0,0,0,21.84,24.045A54.369,54.369,0,0,0,2537.85-.63q17.22,0,27.93-8.4t16.38-25.62q0-.42,1.05-.42,1.47,0,1.47.63l-2.1,23.1a8.318,8.318,0,0,1-.63,3.15,6.169,6.169,0,0,1-1.68,1.47A94.553,94.553,0,0,1,2559.795.63a102.873,102.873,0,0,1-21.945,2.1q-22.05,0-39.375-8.715A65.315,65.315,0,0,1,2471.49-30.45q-9.66-15.75-9.66-36.12,0-19.74,9.87-34.965a65.857,65.857,0,0,1,27.2-23.625Q2516.22-133.56,2537.85-133.56Zm157.5,102.27q0-.42.84-.42a3.084,3.084,0,0,1,1.155.21q.525.21.525.63a195.963,195.963,0,0,0-1.89,27.72,3.323,3.323,0,0,1-.735,2.415A3.677,3.677,0,0,1,2692.62,0h-87.99q-.42,0-.42-1.26t.42-1.26q7.98,0,11.655-1.05a7.382,7.382,0,0,0,5.04-4.095q1.365-3.045,1.365-9.345v-97.23q0-6.3-1.365-9.24a7.757,7.757,0,0,0-5.04-4.1q-3.675-1.155-11.655-1.155-.42,0-.42-1.26t.42-1.26h84.42a1.671,1.671,0,0,1,1.89,1.89l.42,25.83q0,.63-1.05.735t-1.26-.525q-.63-11.13-6.72-17.325t-16.17-6.195h-12.81q-7.35,0-10.815,1.155a7.77,7.77,0,0,0-4.83,3.99q-1.365,2.835-1.365,8.505v42.63h25.62q10.08,0,14.385-3.36t4.3-11.34q0-.42,1.26-.42t1.26.42l-.21,17.01q0,6.09.21,9.24l.21,10.08q0,.42-1.26.42t-1.26-.42q0-9.24-4.515-13.23t-15.015-3.99h-24.99v48.3q0,5.88,1.26,8.61a7.09,7.09,0,0,0,4.62,3.78q3.36,1.05,10.5,1.05h16.8a22.113,22.113,0,0,0,16.8-7.14Q2693.04-18.69,2695.35-31.29Zm160.86-99.96q.63,0,.63,1.26t-.63,1.26q-8.82,0-12.81,4.83t-3.99,15.75V2.52q0,.42-1.05.63a1.591,1.591,0,0,1-1.47-.21l-96.6-116.97-1.89-2.1v93.24q0,10.92,3.885,15.645T2754.78-2.52q.63,0,.63,1.26T2754.78,0q-5.25,0-7.98-.21l-10.5-.21-10.71.21q-2.94.21-8.61.21-.42,0-.42-1.26t.42-1.26q9.03,0,12.81-4.725t3.78-15.645v-98.28q-8.19-7.56-16.59-7.56-.63,0-.63-1.26t.63-1.26l7.77.21q2.52.21,6.93.21,4.62,0,7.56-.21t4.62-.21a3.323,3.323,0,0,1,2.415.735,25.379,25.379,0,0,1,2.415,3.255q2.52,3.78,5.04,6.93L2834.58-21v-87.15q0-10.92-3.675-15.75t-12.285-4.83q-.42,0-.42-1.26t.42-1.26l8.19.21q6.3.42,10.29.42,3.78,0,10.5-.42Zm104.58,99.96q0-.42.84-.42a3.084,3.084,0,0,1,1.155.21q.525.21.525.63a195.963,195.963,0,0,0-1.89,27.72,3.323,3.323,0,0,1-.735,2.415A3.677,3.677,0,0,1,2958.06,0h-87.99q-.42,0-.42-1.26t.42-1.26q7.98,0,11.655-1.05a7.382,7.382,0,0,0,5.04-4.095q1.365-3.045,1.365-9.345v-97.23q0-6.3-1.365-9.24a7.757,7.757,0,0,0-5.04-4.1q-3.675-1.155-11.655-1.155-.42,0-.42-1.26t.42-1.26h84.42a1.671,1.671,0,0,1,1.89,1.89l.42,25.83q0,.63-1.05.735t-1.26-.525q-.63-11.13-6.72-17.325t-16.17-6.195h-12.81q-7.35,0-10.815,1.155a7.77,7.77,0,0,0-4.83,3.99q-1.365,2.835-1.365,8.505v42.63h25.62q10.08,0,14.385-3.36t4.3-11.34q0-.42,1.26-.42t1.26.42l-.21,17.01q0,6.09.21,9.24l.21,10.08q0,.42-1.26.42t-1.26-.42q0-9.24-4.515-13.23t-15.015-3.99h-24.99v48.3q0,5.88,1.26,8.61a7.09,7.09,0,0,0,4.62,3.78q3.36,1.05,10.5,1.05h16.8a22.113,22.113,0,0,0,16.8-7.14Q2958.48-18.69,2960.79-31.29Zm43.47-75.39a25.464,25.464,0,0,0,3.99,14.28,37.624,37.624,0,0,0,9.765,10.185q5.775,4.095,15.855,10.185,11.13,6.72,17.115,11.13a40.78,40.78,0,0,1,10.29,11.235,29.873,29.873,0,0,1,4.3,16.275,34.164,34.164,0,0,1-5.04,18.27,34.437,34.437,0,0,1-14.8,12.915Q3035.97,2.52,3022.32,2.52a60.7,60.7,0,0,1-29.61-7.35,3.018,3.018,0,0,1-1.365-1.47,11.826,11.826,0,0,1-.525-2.52l-2.73-28.56q-.21-.84.945-1.05t1.365.63A60.234,60.234,0,0,0,3002.9-11.76Q3012.03-.84,3027.15-.84q10.5,0,17.745-5.775t7.245-18.375a30.993,30.993,0,0,0-4.2-16.38,40.285,40.285,0,0,0-10.185-11.445,180.754,180.754,0,0,0-16.275-10.6,182.738,182.738,0,0,1-15.855-10.5,38.6,38.6,0,0,1-9.765-11.13,30.273,30.273,0,0,1-3.99-15.75,29.165,29.165,0,0,1,5.565-17.955,33.717,33.717,0,0,1,14.49-11.13,49.422,49.422,0,0,1,19.005-3.675,63.774,63.774,0,0,1,24.57,5.04q3.15,1.05,3.15,3.57l1.47,24.15q0,.84-1.05.84a1.126,1.126,0,0,1-1.26-.84,42.994,42.994,0,0,0-9.03-20.265q-7.35-9.345-21.21-9.345-11.76,0-17.535,6.825T3004.26-106.68Z" transform="translate(-5.67 133.77)" fill="#f8f8f8"/>
</svg>
